<?xml version="1.0" encoding="utf-8"?>
<!-- Generator: Adobe Illustrator 23.0.2, SVG Export Plug-In . SVG Version: 6.00 Build 0)  -->
<svg version="1.0" id="Calque_1" xmlns="http://www.w3.org/2000/svg" xmlns:xlink="http://www.w3.org/1999/xlink" x="0px" y="0px"
	 viewBox="0 0 500 500" style="enable-background:new 0 0 500 500;" xml:space="preserve">
<style type="text/css">
	.st0{fill:#431A13;}
	.st1{fill:#38140C;}
	.st2{fill:#290B00;}
	.st3{fill:#E3B68D;}
	.st4{fill:#CEA681;}
	.st5{fill:#EBC39A;}
	.st6{fill:#D3A47D;}
	.st7{fill:#2D0000;}
	.st8{fill:#E74645;}
	.st9{fill:#FFFFFF;}
	.st10{fill:#0A0A0A;}
	.st11{fill:#AF8968;}
	.st12{fill:#6EBEBF;}
	.st13{fill:#27B1BD;}
	.st14{fill:#2F1B0B;}
	.st15{fill:#C39874;}
	.st16{fill:#432918;}
	.st17{fill:#39150D;}
</style>
<g>
	<path class="st0" d="M158.93,168.04c0,0-54.71,195.15-3.47,244.54c0,0,22.84,22.84,66.43,9.01c0,0-61.21-136.27-50.71-206.77
		L158.93,168.04z"/>
	<g>
		<path class="st1" d="M178.69,168.04c0,0-54.71,195.15-3.47,244.54c0,0,22.84,22.84,66.43,9.01c0,0-61.21-136.27-50.71-206.77
			L178.69,168.04z"/>
		<path class="st2" d="M197.46,168.04c0,0-54.71,195.15-3.47,244.54c0,0,22.84,22.84,66.43,9.01c0,0-61.21-136.27-50.71-206.77
			L197.46,168.04z"/>
	</g>
	<g>
		<path class="st0" d="M344.31,171.67c0,0,54.71,195.15,3.47,244.54c0,0-22.84,22.84-66.43,9.01c0,0,61.21-136.27,50.71-206.78
			L344.31,171.67z"/>
		<path class="st1" d="M325.53,171.67c0,0,54.71,195.15,3.47,244.54c0,0-22.84,22.84-66.43,9.01c0,0,61.2-136.27,50.71-206.78
			L325.53,171.67z"/>
		<path class="st2" d="M305.68,168.04c0,0,54.71,195.15,3.47,244.54c0,0-22.84,22.84-66.43,9.01c0,0,61.21-136.27,50.71-206.77
			L305.68,168.04z"/>
	</g>
	<rect x="204.17" y="309.02" class="st3" width="90.18" height="61.9"/>
	<path class="st3" d="M403.9,399.73l-125.18-48.08h-27.99h-1.48h-27.99L96.09,399.73c0,0-58.59,37.32-56.59,99.76h208.74h3.52H460.5
		C462.5,437.05,403.9,399.73,403.9,399.73z"/>
	<path class="st4" d="M203.87,313.19v22.67l28.08,13.04c0,0,15.92,7.74,32.01,0c0,0,25.62-11.24,30.38-31.51L203.87,313.19z"/>
	<path class="st3" d="M182.65,231.49c2,10.51-2.37,20.16-9.75,21.56c-7.38,1.4-14.97-5.99-16.96-16.5
		c-1.99-10.51,2.37-20.16,9.75-21.56C173.07,213.6,180.66,220.98,182.65,231.49z"/>
	<path class="st3" d="M319.98,230.73c-1.99,10.51,2.37,20.16,9.75,21.56c7.38,1.4,14.97-5.99,16.96-16.5
		c1.99-10.51-2.37-20.16-9.75-21.56C329.56,212.83,321.97,220.22,319.98,230.73z"/>
	<path class="st5" d="M319.86,231.32c-1.53,8.05,1.82,15.44,7.46,16.51c5.65,1.07,11.47-4.59,12.99-12.64
		c1.53-8.05-1.81-15.44-7.46-16.51C327.2,217.62,321.39,223.27,319.86,231.32z"/>
	<path class="st5" d="M181.31,231.32c1.53,8.05-1.82,15.44-7.46,16.51c-5.65,1.07-11.46-4.59-12.99-12.64
		c-1.53-8.05,1.81-15.44,7.46-16.51C173.97,217.62,179.79,223.27,181.31,231.32z"/>
	<path class="st3" d="M161.06,175.01l22.07,100.09c0,0,7.26,22.41,22.33,36.23l26.28,19.41c0,0,12.98,11.5,34.62,0l22.79-14.78
		c0,0,26.81-20.89,30.35-39.51l21.86-101.44c0,0,2.16-95.56-92.67-93.75C248.68,81.25,161.06,83.05,161.06,175.01z"/>
	<g>
		<g>
			<g>
				<path class="st6" d="M235.18,246.97c0,0-8.11,9.89,1.38,15.49c0,0-6.24-10.78,1.49-18.96L235.18,246.97z"/>
				<path class="st6" d="M264.82,247.37c0,0,8.11,9.89-1.37,15.49c0,0,7.72-7.31,0-15.49H264.82z"/>
			</g>
			<g>
				<path class="st6" d="M241.86,256.47c-1.25-0.31-2.7-0.03-3.47,1.05c-0.73,1.03-0.24,1.97,0.71,2.6c1.21,0.79,2.78,0.56,4.1,1.05
					c0.75,0.28,1.45,0.74,1.94,1.37c0.34,0.43,0.49,1.43,1.12,1.5c2.14,0.21,0.09-3.16-0.27-3.74c-0.94-1.53-2.15-3.27-4-3.8
					C241.96,256.5,241.92,256.48,241.86,256.47z"/>
				<path class="st6" d="M258.13,255.93c1.25-0.31,2.7-0.03,3.47,1.06c0.73,1.03,0.24,1.97-0.71,2.6c-1.21,0.79-2.78,0.56-4.1,1.05
					c-0.75,0.28-1.45,0.74-1.94,1.37c-0.33,0.43-0.49,1.44-1.12,1.5c-2.14,0.22-0.09-3.16,0.27-3.74c0.94-1.53,2.15-3.27,4-3.8
					C258.04,255.96,258.09,255.95,258.13,255.93z"/>
			</g>
		</g>
		<path class="st6" d="M234.81,208.91c0,0,10.63,21.99,0.37,38.06C235.18,246.97,250.37,234.05,234.81,208.91z"/>
	</g>
	<g>
		<path class="st7" d="M221.89,281.09l56.21-0.04c0,0-10.11,9.87-27.57,9.87C250.53,290.92,225.58,288.94,221.89,281.09z"/>
		<path class="st8" d="M221.89,281.09c0,0,20.74-9.89,28.11-3.98c0,0,5.87-6.53,28.1,3.94C278.1,281.05,255.92,283.69,221.89,281.09
			z"/>
		<path class="st8" d="M221.89,281.09c0,0,13.1,17.28,30.8,16.39c0,0,10.76,0.03,25.41-16.42c0,0-6.32,6.7-25.6,7.29
			C252.51,288.34,237.08,288.8,221.89,281.09z"/>
		<path class="st9" d="M225.43,281.41c0,0,30.67,2.15,52.68-0.36c0,0-11.91,6.24-26.11,5.89
			C251.99,286.94,235.35,287.2,225.43,281.41z"/>
	</g>
	<path class="st9" d="M316.86,366.29l87.04,33.43c0,0,58.6,37.32,56.6,99.76H251.76h-3.52H39.5c-2-62.44,56.59-99.76,56.59-99.76
		l91.57-35.17l63.55,99.27l62.38-98.79L316.86,366.29z"/>
	<path class="st10" d="M316.86,366.29l87.04,33.43c0,0,58.6,37.32,56.6,99.76H251.76h-3.52H39.5c-2-62.44,56.59-99.76,56.59-99.76
		l87.04-33.43l43.56,133.19h46.61L316.86,366.29z"/>
	<g>
		<g>
			<path class="st9" d="M228.7,214.06c-4.63-8.61-16.64-9.57-16.64-9.57c-10.5-0.88-17.15,7.68-17.15,7.68
				c9.74,8.11,15.84,7.53,15.84,7.53s10.58-0.97,15.24-4.04c0,0,1.67-1.07,3.23,0C229.22,215.66,229.22,214.66,228.7,214.06"/>
			<g>
				<path class="st11" d="M228.78,212.72c0,0-8.86-23.23-37.89-10.29c0,0,1.32,7.33,2.68,8.53c0,0,6.98-10.03,20.44-7
					C214,203.97,224.94,207.34,228.78,212.72z"/>
				<path d="M218.09,210.38c-0.2,3.64-3.41,6.42-7.16,6.21c-3.75-0.21-6.63-3.33-6.43-6.97c0.2-3.64,3.41-6.41,7.16-6.21
					C215.42,203.63,218.29,206.75,218.09,210.38z"/>
				<path class="st12" d="M217.12,210.33c-0.17,3.12-2.92,5.5-6.14,5.32c-3.21-0.18-5.68-2.86-5.51-5.97
					c0.17-3.12,2.92-5.5,6.14-5.32C214.83,204.54,217.3,207.21,217.12,210.33z"/>
				<path class="st13" d="M216.25,210.28c-0.15,2.65-2.48,4.68-5.22,4.52c-2.73-0.15-4.83-2.43-4.68-5.08
					c0.15-2.65,2.48-4.68,5.22-4.52C214.3,205.36,216.4,207.63,216.25,210.28z"/>
				<path d="M214,210.16c-0.09,1.56-1.37,2.76-2.85,2.67c-1.49-0.08-2.63-1.42-2.54-2.98c0.08-1.56,1.37-2.76,2.86-2.67
					C212.95,207.26,214.08,208.6,214,210.16z"/>
				<path class="st14" d="M228.78,212.72c0,0-12.52-18.5-35.56-3.41c0,0-0.28,1.96,1.7,2.86c0,0,9.68-9.52,21.52-6.1
					c0,0,7.17,1.06,12.26,7.98C228.7,214.06,229.82,214.03,228.78,212.72z"/>
				<path class="st15" d="M194.92,212.18c0,0,12.77,11.28,30.49,3.87C225.41,216.04,209.55,227.1,194.92,212.18z"/>
			</g>
			<path class="st14" d="M202.23,206.03c0,0-6.75-0.37-4.72-9.68c0,0-2.77,7.72,1.51,11.25L202.23,206.03z"/>
			<path class="st14" d="M199.34,206.66c0,0-6.48,2.23-7.85-7.12c0,0,0.11,8.17,5.39,9.8L199.34,206.66z"/>
			<path class="st14" d="M195.84,208.89c0,0-4.1,1.84-8.01-3.85c0,0,1.22,4.66,5.87,5.98L195.84,208.89z"/>
			<path class="st9" d="M210.05,208.73c0,0.81-0.66,1.46-1.46,1.46c-0.81,0-1.46-0.66-1.46-1.46c0-0.81,0.65-1.46,1.46-1.46
				C209.4,207.27,210.05,207.92,210.05,208.73z"/>
		</g>
		<path class="st16" d="M232.04,194.64c0,0-18.97-10.08-37.12-9.88c0,0-9.32,1.94-13.02,13.48c0,0,0.31-13.75,9.88-18.4
			c0,0,10.49-5.58,43.83,7.08C235.61,186.93,240.44,193.33,232.04,194.64z"/>
	</g>
	<g>
		<g>
			<path class="st9" d="M269.09,214.06c4.63-8.61,16.64-9.57,16.64-9.57c10.5-0.88,17.15,7.68,17.15,7.68
				c-9.74,8.11-15.84,7.53-15.84,7.53s-10.58-0.97-15.24-4.04c0,0-1.67-1.07-3.23,0C268.57,215.66,268.57,214.66,269.09,214.06"/>
			<g>
				<path class="st11" d="M269.01,212.72c0,0,8.86-23.23,37.89-10.29c0,0-1.32,7.33-2.68,8.53c0,0-6.98-10.03-20.44-7
					C283.79,203.97,272.84,207.34,269.01,212.72z"/>
				<path d="M279.7,210.38c0.2,3.64,3.41,6.42,7.16,6.21c3.75-0.21,6.63-3.33,6.43-6.97c-0.2-3.64-3.41-6.41-7.16-6.21
					C282.37,203.63,279.5,206.75,279.7,210.38z"/>
				<path class="st12" d="M280.66,210.33c0.18,3.12,2.92,5.5,6.14,5.32c3.21-0.18,5.68-2.86,5.51-5.97
					c-0.17-3.12-2.92-5.5-6.14-5.32C282.96,204.54,280.49,207.21,280.66,210.33z"/>
				<path class="st13" d="M281.54,210.28c0.15,2.65,2.48,4.68,5.22,4.52c2.73-0.15,4.83-2.43,4.68-5.08
					c-0.15-2.65-2.48-4.68-5.22-4.52C283.49,205.36,281.39,207.63,281.54,210.28z"/>
				<path d="M283.79,210.16c0.09,1.56,1.36,2.76,2.85,2.67c1.49-0.08,2.63-1.42,2.54-2.98c-0.08-1.56-1.37-2.76-2.86-2.67
					C284.84,207.26,283.71,208.6,283.79,210.16z"/>
				<path class="st14" d="M269.01,212.72c0,0,12.52-18.5,35.56-3.41c0,0,0.28,1.96-1.7,2.86c0,0-9.68-9.52-21.52-6.1
					c0,0-7.17,1.06-12.26,7.98C269.09,214.06,267.97,214.03,269.01,212.72z"/>
				<path class="st15" d="M302.87,212.18c0,0-12.77,11.28-30.49,3.87C272.38,216.04,288.24,227.1,302.87,212.18z"/>
			</g>
			<path class="st14" d="M295.56,206.03c0,0,6.76-0.37,4.72-9.68c0,0,2.77,7.72-1.51,11.25L295.56,206.03z"/>
			<path class="st14" d="M298.45,206.66c0,0,6.48,2.23,7.85-7.12c0,0-0.11,8.17-5.39,9.8L298.45,206.66z"/>
			<path class="st14" d="M301.96,208.89c0,0,4.1,1.84,8-3.85c0,0-1.22,4.66-5.87,5.98L301.96,208.89z"/>
			<path class="st9" d="M290.66,208.73c0,0.81-0.65,1.46-1.46,1.46c-0.81,0-1.46-0.66-1.46-1.46c0-0.81,0.66-1.46,1.46-1.46
				C290,207.27,290.66,207.92,290.66,208.73z"/>
		</g>
		<path class="st16" d="M265.75,194.64c0,0,18.97-10.08,37.12-9.88c0,0,9.32,1.94,13.02,13.48c0,0-0.31-13.75-9.88-18.4
			c0,0-10.49-5.58-43.83,7.08C262.18,186.93,257.35,193.33,265.75,194.64z"/>
	</g>
	<path class="st0" d="M250.54,128.58c-21.25-25.73-49.89-1.99-49.89-1.99c-36.34,36.08-28.83,91.12-28.83,91.12l-5.74-2.9
		c0,0-41.94-133.15,76.55-147.97c0,0,139.79-10.5,93.41,145.99l-6.73,4.88c0,0,11.36-55.17-28.83-91.12c0,0-28.64-23.73-49.89,1.99"
		/>
	<g>
		<g>
			<path class="st17" d="M181.68,144.33c0,0-7.93-4.63-14.11-19.76c0,0-1.24,15.44,11.42,26.55
				C179,151.12,183.13,149.88,181.68,144.33z"/>
			<path class="st17" d="M178,154.62c0,0-7.93-4.63-14.11-19.76c0,0-1.24,15.43,11.42,26.55C175.32,161.41,179.45,160.17,178,154.62
				z"/>
			<path class="st17" d="M171.78,169.15c0,0-6.01-3.84-10.69-16.39c0,0-0.94,12.8,8.66,22.02
				C169.74,174.79,172.88,173.76,171.78,169.15z"/>
			<path class="st17" d="M170.97,183.88c0,0-5.56-3.34-9.89-14.24c0,0-0.86,11.13,8,19.14
				C169.09,188.78,171.99,187.89,170.97,183.88z"/>
			<path class="st17" d="M188.34,132.61c0,0-8.39-5-14.92-21.31c0,0-1.31,16.65,12.08,28.64
				C185.49,139.93,189.87,138.6,188.34,132.61z"/>
			<path class="st17" d="M195.68,123.41c0,0-8.46-5.3-15.04-22.61c0,0-1.32,17.66,12.18,30.38
				C192.82,131.18,197.23,129.76,195.68,123.41z"/>
			<path class="st17" d="M205.22,113.28c0,0-8.88-5.11-15.79-21.82c0,0-1.38,17.05,12.78,29.33
				C202.22,120.79,206.85,119.42,205.22,113.28z"/>
			<path class="st17" d="M217.14,107.61c0,0-10.01-5.36-17.79-22.86c0,0-1.56,17.86,14.41,30.72
				C213.75,115.46,218.97,114.03,217.14,107.61z"/>
		</g>
		<g>
			<path class="st17" d="M325.93,156.72c0,0,8.52-3.44,16.82-17.51c0,0-1.01,15.45-15.14,24.62
				C327.61,163.82,323.69,162,325.93,156.72z"/>
			<path class="st17" d="M328.09,167.43c0,0,8.52-3.44,16.81-17.51c0,0-1.01,15.45-15.14,24.62
				C329.76,174.54,325.85,172.72,328.09,167.43z"/>
			<path class="st17" d="M332.15,182.71c0,0,6.5-2.93,12.95-14.67c0,0-0.93,12.8-11.75,20.54
				C333.35,188.58,330.39,187.11,332.15,182.71z"/>
			<path class="st17" d="M331.35,197.37c0,0,5.69-2.52,11.31-12.63c0,0-0.78,11.04-10.25,17.7
				C332.41,202.44,329.82,201.17,331.35,197.37z"/>
			<path class="st17" d="M321.04,144.16c0,0,9.02-3.73,17.84-18.93c0,0-1.11,16.66-16.09,26.59
				C322.8,151.82,318.66,149.87,321.04,144.16z"/>
			<path class="st17" d="M315.1,133.99c0,0,9.14-4.02,18.15-20.2c0,0-1.25,17.67-16.44,28.3
				C316.81,142.1,312.65,140.06,315.1,133.99z"/>
			<path class="st17" d="M307.13,122.6c0,0,9.52-3.78,18.77-19.32c0,0-1.09,17.07-16.88,27.17
				C309.01,130.46,304.63,128.44,307.13,122.6z"/>
			<path class="st17" d="M296.15,115.26c0,0,10.67-3.86,20.91-20.05c0,0-1.04,17.9-18.69,28.31
				C298.37,123.52,293.42,121.36,296.15,115.26z"/>
		</g>
		<path class="st17" d="M210.16,78.88c0,0,2.48,20.07,16.69,32.41c0,0,2.96,2.47,7.96,0c0,0-21.16-20.99-22.74-32.41H210.16z"/>
		<path class="st17" d="M235.69,70.47c0,0-4.01,22.04,5.66,39.25c0,0,2.05,3.48,7.63,2.29c0,0-13.58-28.39-11.46-40.99L235.69,70.47
			z"/>
		<path class="st17" d="M267.01,70.47c0,0,4.01,22.04-5.66,39.25c0,0-2.05,3.48-7.63,2.29c0,0,13.58-28.39,11.46-40.99L267.01,70.47
			z"/>
		<path class="st17" d="M305.58,80.46c0,0-2.48,20.07-16.68,32.41c0,0-2.96,2.47-7.96,0c0,0,21.16-20.99,22.74-32.41H305.58z"/>
	</g>
</g>
</svg>
