<?xml version="1.0" encoding="utf-8"?>
<!-- Generator: Adobe Illustrator 23.0.2, SVG Export Plug-In . SVG Version: 6.00 Build 0)  -->
<svg version="1.1" id="Calque_1" xmlns="http://www.w3.org/2000/svg" xmlns:xlink="http://www.w3.org/1999/xlink" x="0px" y="0px"
	 viewBox="0 0 500 500" style="enable-background:new 0 0 500 500;" xml:space="preserve">
<style type="text/css">
	.st0{fill:#AE5C59;}
	.st1{fill:#FFC865;}
	.st2{fill:#FFFFFC;}
	.st3{fill:#464645;}
	.st4{fill:#5F5F5E;}
	.st5{opacity:0.28;}
</style>
<g>
	<g>
		<path class="st0" d="M303.63,216.99c0-29.7-24.07-53.77-53.77-53.77c-29.69,0-53.77,24.07-53.77,53.77
			c0,29.69,24.07,53.77,53.77,53.77C279.56,270.76,303.63,246.69,303.63,216.99z"/>
		<path class="st1" d="M294.4,217.82c-0.18,0-0.36,0.06-0.54,0.08c-3.25-28.3-22.16-50.05-45.08-50.05
			c-22.96,0-41.91,21.83-45.1,50.21c-3.71,1.12-6.5,5.93-6.5,11.7c0,6.3,3.34,11.41,7.56,11.86c3.02,14.57,10.3,26.89,20,34.67
			v13.75h45.62l-0.07-13.88c10.96-7.62,19.3-18.84,22.54-34.69c0.51,0.14,1.03,0.23,1.56,0.23c4.5,0,8.15-5.35,8.15-11.95
			C302.55,223.17,298.9,217.82,294.4,217.82z"/>
		<path class="st2" d="M284.56,285.17c0,0-1.72-13.05-8.92-8.98c-13.14,7.44-24.36,10.52-27.09,11.04
			c-2.74-0.52-13.03-2.77-26.17-10.21c-7.2-4.07-7.2,8.15-7.2,8.15l34.69,42.56L284.56,285.17z"/>
		<polygon class="st3" points="345.55,326.08 284.56,285.17 249.87,326.44 215.17,285.17 154.18,326.08 154.22,374.55 
			345.82,374.55 		"/>
		<path class="st0" d="M205.94,198.1c-1.25,4.1-6.76,19.72-1.29,22.26c6,2.79,18.19-11.15,21.91-14.48
			c0.16,2.56-0.68,5.72,1.35,7.56c2.47,2.25,6.04,0.13,8.41-1.25c6.39-3.73,10.85-8.29,15.66-13.8c-0.75,5.17,2.12,9.42,7.55,7.99
			c7.34-1.92,13.3-9.4,18.52-14.34c-0.42,7.06,7.23,7.04,11.57,2.92c1.6-1.51,3.91-5.6,4.13-7.67c0.79-7.46-10.58-13.08-16.05-16.38
			c-7.9-4.76-14.04-7.68-23.42-7.69c-12.1-0.01-23.94,2.27-32.71,10.98c-1.56,1.56-6.63,5.75-4.21,7.16L205.94,198.1z"/>
		<path class="st3" d="M249.87,125.45l-92.72,33.93v8.13l40.62,10.99v24.61c0,0,16.16-4.62,52.1-6.9c35,2.1,52.1,6.9,52.1,6.9V178.5
			l40.62-10.99v-8.13L249.87,125.45z"/>
		<path class="st4" d="M333.37,223.17c1.6-0.3,2.81-1.7,2.81-3.39c0-1.9-1.55-3.45-3.45-3.45h-0.59v-62.94
			c0-2.62-2.13-4.75-4.75-4.75c-2.62,0-4.75,2.13-4.75,4.75v62.94h-0.04c-1.91,0-3.45,1.55-3.45,3.45c0,1.51,0.98,2.78,2.33,3.25
			c-4.71,10.06-7.69,17.54-6.42,18.65c8.93,7.84,15.74,7.84,24.67,0C340.99,240.58,338.07,233.21,333.37,223.17z"/>
	</g>
	<g class="st5">
		<path class="st0" d="M251.21,270.76c29.7,0,51.63-24.07,51.63-53.77c0-29.7-24.07-53.77-53.77-53.77L251.21,270.76z"/>
		<path class="st1" d="M249.87,290.05h20.5l-0.07-13.88c10.96-7.62,19.3-18.84,22.54-34.69c0.51,0.14,1.03,0.23,1.56,0.23
			c4.5,0,8.15-5.35,8.15-11.95c0-6.6-3.65-11.95-8.15-11.95c-0.18,0-0.36,0.06-0.54,0.08c-3.25-28.3-22.16-50.05-45.08-50.05
			L249.87,290.05z"/>
		<path class="st2" d="M249.87,327.73l34.69-42.56c0,0-1.72-13.05-8.92-8.98c-13.14,7.44-24.36,10.52-27.09,11.04L249.87,327.73z"/>
		<polygon class="st3" points="249.87,374.55 345.82,374.55 345.55,326.08 284.56,285.17 249.87,326.44 		"/>
		<path class="st0" d="M276.64,170.91c-7.9-4.76-14.03-7.68-23.42-7.69c-1.47,0-2.95,0.04-4.41,0.11v37.43
			c0.7-0.77,1.4-1.56,2.11-2.37c-0.75,5.17,2.12,9.42,7.55,7.99c7.34-1.92,13.29-9.4,18.52-14.34c-0.42,7.06,7.23,7.04,11.57,2.92
			c1.6-1.51,3.91-5.6,4.13-7.67C293.49,179.83,282.12,174.21,276.64,170.91z"/>
		<path class="st3" d="M248.81,196.21c35,2.1,52.1,6.9,52.1,6.9V178.5l40.62-10.99v-8.13l-92.72-33.93V196.21z"/>
		<path class="st4" d="M332.31,223.17c1.6-0.3,2.81-1.7,2.81-3.39c0-1.9-1.55-3.45-3.45-3.45h-0.59v-62.94
			c0-2.62-2.13-4.75-4.75-4.75c-2.62,0-4.75,2.13-4.75,4.75v62.94h-0.04c-1.91,0-3.45,1.55-3.45,3.45c0,1.51,0.98,2.78,2.32,3.25
			c-4.71,10.06-7.69,17.54-6.42,18.65c8.93,7.84,15.74,7.84,24.67,0C339.93,240.58,337.01,233.21,332.31,223.17z"/>
	</g>
</g>
</svg>
