<?xml version="1.0" encoding="utf-8"?>
<!-- Generator: Adobe Illustrator 23.0.2, SVG Export Plug-In . SVG Version: 6.00 Build 0)  -->
<svg version="1.0" id="Calque_1" xmlns="http://www.w3.org/2000/svg" xmlns:xlink="http://www.w3.org/1999/xlink" x="0px" y="0px"
	 viewBox="0 0 500 500" style="enable-background:new 0 0 500 500;" xml:space="preserve">
<style type="text/css">
	.st0{fill:#E3B68D;}
	.st1{fill:#D9AE87;}
	.st2{fill:#EBC39A;}
	.st3{fill:#432918;}
	.st4{fill:#FFFFFF;}
	.st5{fill:#007E89;}
	.st6{fill:#8F7156;}
	.st7{fill:#C39874;}
	.st8{fill:#D3A47D;}
	.st9{fill:#2D0000;}
	.st10{fill:#0A0A0A;}
	.st11{fill:#BE1622;}
	.st12{filter:url(#Adobe_OpacityMaskFilter);}
	.st13{filter:url(#Adobe_OpacityMaskFilter_1_);}
	.st14{mask:url(#SVGID_1_);fill:url(#SVGID_2_);}
	.st15{fill:url(#SVGID_3_);}
	.st16{filter:url(#Adobe_OpacityMaskFilter_2_);}
	.st17{filter:url(#Adobe_OpacityMaskFilter_3_);}
	.st18{mask:url(#SVGID_4_);fill:url(#SVGID_5_);}
	.st19{fill:url(#SVGID_6_);}
	.st20{filter:url(#Adobe_OpacityMaskFilter_4_);}
	.st21{filter:url(#Adobe_OpacityMaskFilter_5_);}
	.st22{mask:url(#SVGID_7_);fill:url(#SVGID_8_);}
	.st23{fill:url(#SVGID_9_);}
	.st24{filter:url(#Adobe_OpacityMaskFilter_6_);}
	.st25{filter:url(#Adobe_OpacityMaskFilter_7_);}
	.st26{mask:url(#SVGID_10_);fill:url(#SVGID_11_);}
	.st27{fill:url(#SVGID_12_);}
	.st28{filter:url(#Adobe_OpacityMaskFilter_8_);}
	.st29{filter:url(#Adobe_OpacityMaskFilter_9_);}
	.st30{mask:url(#SVGID_13_);fill:url(#SVGID_14_);}
	.st31{fill:url(#SVGID_15_);}
	.st32{filter:url(#Adobe_OpacityMaskFilter_10_);}
	.st33{filter:url(#Adobe_OpacityMaskFilter_11_);}
	.st34{mask:url(#SVGID_16_);fill:url(#SVGID_17_);}
	.st35{fill:url(#SVGID_18_);}
	.st36{filter:url(#Adobe_OpacityMaskFilter_12_);}
	.st37{filter:url(#Adobe_OpacityMaskFilter_13_);}
	.st38{mask:url(#SVGID_19_);fill:url(#SVGID_20_);}
	.st39{fill:url(#SVGID_21_);}
	.st40{filter:url(#Adobe_OpacityMaskFilter_14_);}
	.st41{filter:url(#Adobe_OpacityMaskFilter_15_);}
	.st42{mask:url(#SVGID_22_);fill:url(#SVGID_23_);}
	.st43{fill:url(#SVGID_24_);}
	.st44{filter:url(#Adobe_OpacityMaskFilter_16_);}
	.st45{filter:url(#Adobe_OpacityMaskFilter_17_);}
	.st46{mask:url(#SVGID_25_);fill:url(#SVGID_26_);}
	.st47{fill:url(#SVGID_27_);}
	.st48{filter:url(#Adobe_OpacityMaskFilter_18_);}
	.st49{filter:url(#Adobe_OpacityMaskFilter_19_);}
	.st50{mask:url(#SVGID_28_);fill:url(#SVGID_29_);}
	.st51{fill:url(#SVGID_30_);}
	.st52{filter:url(#Adobe_OpacityMaskFilter_20_);}
	.st53{filter:url(#Adobe_OpacityMaskFilter_21_);}
	.st54{mask:url(#SVGID_31_);fill:url(#SVGID_32_);}
	.st55{fill:url(#SVGID_33_);}
	.st56{filter:url(#Adobe_OpacityMaskFilter_22_);}
	.st57{filter:url(#Adobe_OpacityMaskFilter_23_);}
	.st58{mask:url(#SVGID_34_);fill:url(#SVGID_35_);}
	.st59{fill:url(#SVGID_36_);}
	.st60{filter:url(#Adobe_OpacityMaskFilter_24_);}
	.st61{filter:url(#Adobe_OpacityMaskFilter_25_);}
	.st62{mask:url(#SVGID_37_);fill:url(#SVGID_38_);}
	.st63{fill:url(#SVGID_39_);}
	.st64{filter:url(#Adobe_OpacityMaskFilter_26_);}
	.st65{filter:url(#Adobe_OpacityMaskFilter_27_);}
	.st66{mask:url(#SVGID_40_);fill:url(#SVGID_41_);}
	.st67{fill:url(#SVGID_42_);}
	.st68{filter:url(#Adobe_OpacityMaskFilter_28_);}
	.st69{filter:url(#Adobe_OpacityMaskFilter_29_);}
	.st70{mask:url(#SVGID_43_);fill:url(#SVGID_44_);}
	.st71{fill:url(#SVGID_45_);}
	.st72{filter:url(#Adobe_OpacityMaskFilter_30_);}
	.st73{filter:url(#Adobe_OpacityMaskFilter_31_);}
	.st74{mask:url(#SVGID_46_);fill:url(#SVGID_47_);}
	.st75{fill:url(#SVGID_48_);}
	.st76{filter:url(#Adobe_OpacityMaskFilter_32_);}
	.st77{filter:url(#Adobe_OpacityMaskFilter_33_);}
	.st78{mask:url(#SVGID_49_);fill:url(#SVGID_50_);}
	.st79{fill:url(#SVGID_51_);}
	.st80{filter:url(#Adobe_OpacityMaskFilter_34_);}
	.st81{filter:url(#Adobe_OpacityMaskFilter_35_);}
	.st82{mask:url(#SVGID_52_);fill:url(#SVGID_53_);}
	.st83{fill:url(#SVGID_54_);}
	.st84{filter:url(#Adobe_OpacityMaskFilter_36_);}
	.st85{filter:url(#Adobe_OpacityMaskFilter_37_);}
	.st86{mask:url(#SVGID_55_);fill:url(#SVGID_56_);}
	.st87{fill:url(#SVGID_57_);}
	.st88{filter:url(#Adobe_OpacityMaskFilter_38_);}
	.st89{filter:url(#Adobe_OpacityMaskFilter_39_);}
	.st90{mask:url(#SVGID_58_);fill:url(#SVGID_59_);}
	.st91{fill:url(#SVGID_60_);}
	.st92{filter:url(#Adobe_OpacityMaskFilter_40_);}
	.st93{filter:url(#Adobe_OpacityMaskFilter_41_);}
	.st94{mask:url(#SVGID_61_);fill:url(#SVGID_62_);}
	.st95{fill:url(#SVGID_63_);}
	.st96{filter:url(#Adobe_OpacityMaskFilter_42_);}
	.st97{filter:url(#Adobe_OpacityMaskFilter_43_);}
	.st98{mask:url(#SVGID_64_);fill:url(#SVGID_65_);}
	.st99{fill:url(#SVGID_66_);}
	.st100{fill:#EDEDED;}
	.st101{fill:#431A13;}
	.st102{fill:#2A0B01;}
</style>
<rect x="205.43" y="314.87" class="st0" width="87.71" height="60.21"/>
<path class="st0" d="M399.7,403.1l-121.75-46.77h-27.22h-1.44h-27.22L100.31,403.1c0,0-56.99,36.3-55.05,97.03H248.3h3.42h203.03
	C456.69,439.39,399.7,403.1,399.7,403.1z"/>
<path class="st1" d="M205.14,318.92v22.05l27.31,12.69c0,0,15.48,7.53,31.14,0c0,0,24.92-10.93,29.55-30.65L205.14,318.92z"/>
<path class="st0" d="M184.51,239.47c1.94,10.22-2.31,19.61-9.48,20.97c-7.17,1.36-14.56-5.82-16.5-16.05
	c-1.94-10.22,2.31-19.61,9.48-20.97C175.18,222.06,182.57,229.24,184.51,239.47z"/>
<path class="st0" d="M318.06,238.72c-1.94,10.22,2.31,19.61,9.48,20.97c7.17,1.36,14.56-5.82,16.5-16.05
	c1.94-10.22-2.31-19.61-9.48-20.97C327.39,221.32,320.01,228.5,318.06,238.72z"/>
<path class="st2" d="M317.96,239.3c-1.48,7.83,1.77,15.02,7.26,16.06c5.5,1.04,11.15-4.46,12.63-12.29
	c1.48-7.83-1.76-15.02-7.26-16.06C325.1,225.97,319.44,231.47,317.96,239.3z"/>
<path class="st2" d="M183.2,239.3c1.48,7.83-1.77,15.02-7.26,16.06c-5.49,1.04-11.15-4.46-12.63-12.29
	c-1.48-7.83,1.77-15.02,7.26-16.06C176.06,225.97,181.72,231.47,183.2,239.3z"/>
<path class="st0" d="M163.5,184.52l12.63,100.04c0,0,1.4,20.48,26.65,37.38L232.24,336c0,0,12.63,11.19,33.67,0l29.46-14.06
	c0,0,30.87-17.31,29.46-37.38l14.03-100.04c0,0,2.1-92.94-90.14-91.19C248.73,93.34,163.5,95.09,163.5,184.52z"/>
<path class="st3" d="M263.43,193.24c0,0-8.21,2.06,0,8.93l42.55-4.47c0,0,8.96-2.4,14.18,0c0,0-14.18-9.28-23.89-7.9L263.43,193.24z
	"/>
<path class="st3" d="M233.42,193.24c0,0,8.21,2.06,0,8.93l-42.55-4.47c0,0-8.96-2.4-14.18,0c0,0,14.18-9.28,23.89-7.9L233.42,193.24
	z"/>
<g>
	<path class="st4" d="M230.06,222.51c-4.5-8.38-16.18-9.31-16.18-9.31c-10.22-0.85-16.68,7.47-16.68,7.47
		c9.47,7.89,15.4,7.32,15.4,7.32s10.29-0.95,14.82-3.93c0,0,1.12-0.91,2.63,0.13C230.06,224.2,230.28,223.44,230.06,222.51"/>
	<g>
		<path d="M219.74,218.93c-0.2,3.54-3.32,6.24-6.97,6.04c-3.65-0.2-6.45-3.24-6.25-6.78c0.2-3.54,3.32-6.24,6.97-6.04
			C217.14,212.36,219.94,215.4,219.74,218.93z"/>
		<path class="st5" d="M218.8,218.88c-0.17,3.03-2.84,5.35-5.97,5.18c-3.13-0.17-5.53-2.78-5.36-5.81c0.17-3.03,2.84-5.35,5.97-5.18
			C216.57,213.25,218.97,215.85,218.8,218.88z"/>
		<path d="M215.76,218.71c-0.08,1.52-1.33,2.68-2.78,2.6c-1.45-0.08-2.56-1.38-2.47-2.89c0.08-1.52,1.33-2.68,2.78-2.6
			C214.74,215.9,215.85,217.2,215.76,218.71z"/>
		<path class="st6" d="M230.13,221.21c0,0-12.18-17.99-34.59-3.31c0,0-0.28,1.9,1.66,2.78c0,0,9.42-9.26,20.93-5.93
			c0,0,6.97,1.03,11.92,7.77C230.06,222.51,231.15,222.48,230.13,221.21z"/>
		<path class="st7" d="M197.21,220.68c0,0,12.42,10.97,29.66,3.76C226.86,224.44,211.44,235.19,197.21,220.68z"/>
		<path class="st8" d="M226.86,213.93c0,0-12.46-14.65-30.26-0.96C196.6,212.97,212.03,206.03,226.86,213.93z"/>
	</g>
	<path class="st4" d="M211.93,217.14c0,0.78-0.64,1.42-1.42,1.42c-0.79,0-1.42-0.64-1.42-1.42c0-0.79,0.64-1.42,1.42-1.42
		C211.29,215.72,211.93,216.36,211.93,217.14z"/>
</g>
<g>
	<path class="st4" d="M266.33,222.51c4.51-8.38,16.18-9.31,16.18-9.31c10.22-0.85,16.68,7.47,16.68,7.47
		c-9.47,7.89-15.4,7.32-15.4,7.32s-10.28-0.95-14.82-3.93c0,0-1.12-0.91-2.63,0.13C266.33,224.2,266.12,223.44,266.33,222.51"/>
	<g>
		<path d="M276.65,218.93c0.2,3.54,3.32,6.24,6.97,6.04c3.65-0.2,6.45-3.24,6.25-6.78c-0.2-3.54-3.32-6.24-6.97-6.04
			C279.25,212.36,276.45,215.4,276.65,218.93z"/>
		<path class="st5" d="M277.59,218.88c0.17,3.03,2.84,5.35,5.97,5.18c3.13-0.17,5.53-2.78,5.36-5.81c-0.17-3.03-2.84-5.35-5.97-5.18
			C279.82,213.25,277.42,215.85,277.59,218.88z"/>
		<path d="M280.63,218.71c0.08,1.52,1.33,2.68,2.78,2.6c1.45-0.08,2.56-1.38,2.47-2.89c-0.08-1.52-1.33-2.68-2.78-2.6
			C281.66,215.9,280.55,217.2,280.63,218.71z"/>
		<path class="st6" d="M266.26,221.21c0,0,12.18-17.99,34.59-3.31c0,0,0.28,1.9-1.66,2.78c0,0-9.42-9.26-20.93-5.93
			c0,0-6.97,1.03-11.92,7.77C266.33,222.51,265.25,222.48,266.26,221.21z"/>
		<path class="st7" d="M299.19,220.68c0,0-12.42,10.97-29.66,3.76C269.53,224.44,284.96,235.19,299.19,220.68z"/>
		<path class="st8" d="M269.53,213.93c0,0,12.46-14.65,30.26-0.96C299.79,212.97,284.36,206.03,269.53,213.93z"/>
	</g>
	<path class="st4" d="M287.31,216.82c0,0.78-0.64,1.42-1.42,1.42c-0.79,0-1.42-0.64-1.42-1.42c0-0.79,0.64-1.42,1.42-1.42
		C286.67,215.4,287.31,216.04,287.31,216.82z"/>
</g>
<g>
	<g>
		<g>
			<path class="st8" d="M235.59,254.52c0,0-7.89,9.62,1.34,15.06c0,0-6.06-10.49,1.45-18.44L235.59,254.52z"/>
			<path class="st8" d="M264.42,254.9c0,0,7.89,9.62-1.33,15.07c0,0,7.51-7.11,0-15.07H264.42z"/>
		</g>
		<g>
			<path class="st8" d="M242.09,263.76c-1.22-0.3-2.63-0.03-3.38,1.02c-0.71,1.01-0.24,1.92,0.69,2.53c1.17,0.77,2.7,0.54,3.99,1.02
				c0.73,0.28,1.41,0.72,1.89,1.33c0.33,0.42,0.47,1.39,1.09,1.46c2.08,0.21,0.09-3.07-0.26-3.63c-0.91-1.49-2.09-3.18-3.89-3.7
				C242.19,263.78,242.14,263.77,242.09,263.76z"/>
			<path class="st8" d="M257.92,263.24c1.22-0.3,2.63-0.03,3.38,1.03c0.71,1,0.24,1.92-0.69,2.53c-1.17,0.77-2.7,0.54-3.99,1.02
				c-0.73,0.27-1.41,0.72-1.89,1.33c-0.32,0.42-0.47,1.4-1.09,1.46c-2.08,0.21-0.08-3.07,0.26-3.63c0.91-1.49,2.09-3.18,3.89-3.7
				C257.82,263.26,257.87,263.25,257.92,263.24z"/>
		</g>
	</g>
	<path class="st8" d="M235.23,217.5c0,0,10.34,21.39,0.36,37.02C235.59,254.52,250.37,241.95,235.23,217.5z"/>
</g>
<g>
	<path class="st9" d="M222.67,287.7l54.67-0.03c0,0-9.83,9.6-26.82,9.6C250.52,297.27,226.25,295.34,222.67,287.7z"/>
	<path class="st8" d="M222.67,287.7c0,0,11.23-8.28,27.34-3.87c0,0,7.89-4.32,27.34,3.83C277.34,287.67,255.76,290.24,222.67,287.7z
		"/>
	<path class="st8" d="M222.67,287.7c0,0,6,15.95,29.96,15.94c0,0,16.33-0.26,24.72-15.98c0,0-6.15,6.52-24.9,7.09
		C252.44,294.76,237.44,295.2,222.67,287.7z"/>
	<path class="st4" d="M226.11,288.02c0,0,29.83,2.09,51.24-0.35c0,0-11.58,6.07-25.4,5.73C251.95,293.4,235.76,293.65,226.11,288.02
		z"/>
</g>
<path class="st4" d="M315.04,370.58l84.66,32.52c0,0,56.99,36.3,55.05,97.03H251.72h-3.42H45.27
	c-1.94-60.73,55.05-97.03,55.05-97.03l84.66-32.52l20.45-7.86h89.15L315.04,370.58z"/>
<path class="st10" d="M315.04,370.58l84.66,32.52c0,0,56.99,36.3,55.05,97.03H251.72h-3.42H45.27
	c-1.94-60.73,55.05-97.03,55.05-97.03l84.66-32.52l42.36,129.55h45.34L315.04,370.58z"/>
<g>
	<polygon class="st11" points="273.89,500.12 273.04,493.17 266.89,500.12 	"/>
	<defs>
		<filter id="Adobe_OpacityMaskFilter" filterUnits="userSpaceOnUse" x="266.89" y="493.17" width="7" height="6.96">
			<feFlood  style="flood-color:white;flood-opacity:1" result="back"/>
			<feBlend  in="SourceGraphic" in2="back" mode="normal"/>
		</filter>
	</defs>
	<mask maskUnits="userSpaceOnUse" x="266.89" y="493.17" width="7" height="6.96" id="SVGID_1_">
		<g class="st12">
			<defs>
				<filter id="Adobe_OpacityMaskFilter_1_" filterUnits="userSpaceOnUse" x="266.89" y="493.17" width="7" height="6.96">
					<feFlood  style="flood-color:white;flood-opacity:1" result="back"/>
					<feBlend  in="SourceGraphic" in2="back" mode="normal"/>
				</filter>
			</defs>
			<mask maskUnits="userSpaceOnUse" x="266.89" y="493.17" width="7" height="6.96" id="SVGID_1_">
				<g class="st13">
				</g>
			</mask>
			<linearGradient id="SVGID_2_" gradientUnits="userSpaceOnUse" x1="183.9559" y1="496.6439" x2="284.4395" y2="496.6439">
				<stop  offset="0" style="stop-color:#FFFFFF"/>
				<stop  offset="1" style="stop-color:#000000"/>
			</linearGradient>
			<polygon class="st14" points="273.89,500.12 273.04,493.17 266.89,500.12 			"/>
		</g>
	</mask>
	<linearGradient id="SVGID_3_" gradientUnits="userSpaceOnUse" x1="183.9559" y1="496.6439" x2="284.4395" y2="496.6439">
		<stop  offset="0" style="stop-color:#000000"/>
		<stop  offset="1" style="stop-color:#BE1622"/>
	</linearGradient>
	<polygon class="st15" points="273.89,500.12 273.04,493.17 266.89,500.12 	"/>
	<polygon class="st11" points="256.33,500.12 271.76,482.67 270.29,470.67 244.26,500.12 	"/>
	<defs>
		<filter id="Adobe_OpacityMaskFilter_2_" filterUnits="userSpaceOnUse" x="244.26" y="470.67" width="27.49" height="29.46">
			<feFlood  style="flood-color:white;flood-opacity:1" result="back"/>
			<feBlend  in="SourceGraphic" in2="back" mode="normal"/>
		</filter>
	</defs>
	<mask maskUnits="userSpaceOnUse" x="244.26" y="470.67" width="27.49" height="29.46" id="SVGID_4_">
		<g class="st16">
			<defs>
				<filter id="Adobe_OpacityMaskFilter_3_" filterUnits="userSpaceOnUse" x="244.26" y="470.67" width="27.49" height="29.46">
					<feFlood  style="flood-color:white;flood-opacity:1" result="back"/>
					<feBlend  in="SourceGraphic" in2="back" mode="normal"/>
				</filter>
			</defs>
			<mask maskUnits="userSpaceOnUse" x="244.26" y="470.67" width="27.49" height="29.46" id="SVGID_4_">
				<g class="st17">
				</g>
			</mask>
			<linearGradient id="SVGID_5_" gradientUnits="userSpaceOnUse" x1="183.9603" y1="485.3937" x2="284.4391" y2="485.3937">
				<stop  offset="0" style="stop-color:#FFFFFF"/>
				<stop  offset="1" style="stop-color:#000000"/>
			</linearGradient>
			<polygon class="st18" points="256.33,500.12 271.76,482.67 270.29,470.67 244.26,500.12 			"/>
		</g>
	</mask>
	<linearGradient id="SVGID_6_" gradientUnits="userSpaceOnUse" x1="183.9603" y1="485.3937" x2="284.4391" y2="485.3937">
		<stop  offset="0" style="stop-color:#000000"/>
		<stop  offset="1" style="stop-color:#BE1622"/>
	</linearGradient>
	<polygon class="st19" points="256.33,500.12 271.76,482.67 270.29,470.67 244.26,500.12 	"/>
	<polygon class="st11" points="233.7,500.12 269,460.17 267.53,448.17 228.2,492.69 227.29,500.12 	"/>
	<defs>
		<filter id="Adobe_OpacityMaskFilter_4_" filterUnits="userSpaceOnUse" x="227.29" y="448.17" width="41.71" height="51.96">
			<feFlood  style="flood-color:white;flood-opacity:1" result="back"/>
			<feBlend  in="SourceGraphic" in2="back" mode="normal"/>
		</filter>
	</defs>
	<mask maskUnits="userSpaceOnUse" x="227.29" y="448.17" width="41.71" height="51.96" id="SVGID_7_">
		<g class="st20">
			<defs>
				<filter id="Adobe_OpacityMaskFilter_5_" filterUnits="userSpaceOnUse" x="227.29" y="448.17" width="41.71" height="51.96">
					<feFlood  style="flood-color:white;flood-opacity:1" result="back"/>
					<feBlend  in="SourceGraphic" in2="back" mode="normal"/>
				</filter>
			</defs>
			<mask maskUnits="userSpaceOnUse" x="227.29" y="448.17" width="41.71" height="51.96" id="SVGID_7_">
				<g class="st21">
				</g>
			</mask>
			<linearGradient id="SVGID_8_" gradientUnits="userSpaceOnUse" x1="183.9594" y1="474.144" x2="284.4385" y2="474.144">
				<stop  offset="0" style="stop-color:#FFFFFF"/>
				<stop  offset="1" style="stop-color:#000000"/>
			</linearGradient>
			<polygon class="st22" points="233.7,500.12 269,460.17 267.53,448.17 228.2,492.69 227.29,500.12 			"/>
		</g>
	</mask>
	<linearGradient id="SVGID_9_" gradientUnits="userSpaceOnUse" x1="183.9594" y1="474.144" x2="284.4385" y2="474.144">
		<stop  offset="0" style="stop-color:#000000"/>
		<stop  offset="1" style="stop-color:#BE1622"/>
	</linearGradient>
	<polygon class="st23" points="233.7,500.12 269,460.17 267.53,448.17 228.2,492.69 227.29,500.12 	"/>
	<polygon class="st11" points="233.55,449.06 263.49,415.17 262.02,403.17 235.49,433.2 	"/>
	<defs>
		<filter id="Adobe_OpacityMaskFilter_6_" filterUnits="userSpaceOnUse" x="233.55" y="403.17" width="29.94" height="45.9">
			<feFlood  style="flood-color:white;flood-opacity:1" result="back"/>
			<feBlend  in="SourceGraphic" in2="back" mode="normal"/>
		</filter>
	</defs>
	<mask maskUnits="userSpaceOnUse" x="233.55" y="403.17" width="29.94" height="45.9" id="SVGID_10_">
		<g class="st24">
			<defs>
				<filter id="Adobe_OpacityMaskFilter_7_" filterUnits="userSpaceOnUse" x="233.55" y="403.17" width="29.94" height="45.9">
					<feFlood  style="flood-color:white;flood-opacity:1" result="back"/>
					<feBlend  in="SourceGraphic" in2="back" mode="normal"/>
				</filter>
			</defs>
			<mask maskUnits="userSpaceOnUse" x="233.55" y="403.17" width="29.94" height="45.9" id="SVGID_10_">
				<g class="st25">
				</g>
			</mask>
			<linearGradient id="SVGID_11_" gradientUnits="userSpaceOnUse" x1="183.961" y1="426.1139" x2="284.4394" y2="426.1139">
				<stop  offset="0" style="stop-color:#FFFFFF"/>
				<stop  offset="1" style="stop-color:#000000"/>
			</linearGradient>
			<polygon class="st26" points="233.55,449.06 263.49,415.17 262.02,403.17 235.49,433.2 			"/>
		</g>
	</mask>
	<linearGradient id="SVGID_12_" gradientUnits="userSpaceOnUse" x1="183.961" y1="426.1139" x2="284.4394" y2="426.1139">
		<stop  offset="0" style="stop-color:#000000"/>
		<stop  offset="1" style="stop-color:#BE1622"/>
	</linearGradient>
	<polygon class="st27" points="233.55,449.06 263.49,415.17 262.02,403.17 235.49,433.2 	"/>
	<path class="st11" d="M235.22,366.96c-1.64,1.96-2.43,4-2.45,6.12l8.68-9.83C239.11,363.7,237.11,364.71,235.22,366.96z"/>
	<defs>
		<filter id="Adobe_OpacityMaskFilter_8_" filterUnits="userSpaceOnUse" x="232.77" y="363.25" width="8.68" height="9.83">
			<feFlood  style="flood-color:white;flood-opacity:1" result="back"/>
			<feBlend  in="SourceGraphic" in2="back" mode="normal"/>
		</filter>
	</defs>
	<mask maskUnits="userSpaceOnUse" x="232.77" y="363.25" width="8.68" height="9.83" id="SVGID_13_">
		<g class="st28">
			<defs>
				<filter id="Adobe_OpacityMaskFilter_9_" filterUnits="userSpaceOnUse" x="232.77" y="363.25" width="8.68" height="9.83">
					<feFlood  style="flood-color:white;flood-opacity:1" result="back"/>
					<feBlend  in="SourceGraphic" in2="back" mode="normal"/>
				</filter>
			</defs>
			<mask maskUnits="userSpaceOnUse" x="232.77" y="363.25" width="8.68" height="9.83" id="SVGID_13_">
				<g class="st29">
				</g>
			</mask>
			<linearGradient id="SVGID_14_" gradientUnits="userSpaceOnUse" x1="183.9701" y1="368.1659" x2="284.4294" y2="368.1659">
				<stop  offset="0" style="stop-color:#FFFFFF"/>
				<stop  offset="1" style="stop-color:#000000"/>
			</linearGradient>
			<path class="st30" d="M235.22,366.96c-1.64,1.96-2.43,4-2.45,6.12l8.68-9.83C239.11,363.7,237.11,364.71,235.22,366.96z"/>
		</g>
	</mask>
	<linearGradient id="SVGID_15_" gradientUnits="userSpaceOnUse" x1="183.9701" y1="368.1659" x2="284.4294" y2="368.1659">
		<stop  offset="0" style="stop-color:#000000"/>
		<stop  offset="1" style="stop-color:#BE1622"/>
	</linearGradient>
	<path class="st31" d="M235.22,366.96c-1.64,1.96-2.43,4-2.45,6.12l8.68-9.83C239.11,363.7,237.11,364.71,235.22,366.96z"/>
	<polygon class="st11" points="229.9,478.81 266.24,437.66 264.77,425.67 231.85,462.94 	"/>
	<defs>
		<filter id="Adobe_OpacityMaskFilter_10_" filterUnits="userSpaceOnUse" x="229.9" y="425.67" width="36.34" height="53.14">
			<feFlood  style="flood-color:white;flood-opacity:1" result="back"/>
			<feBlend  in="SourceGraphic" in2="back" mode="normal"/>
		</filter>
	</defs>
	<mask maskUnits="userSpaceOnUse" x="229.9" y="425.67" width="36.34" height="53.14" id="SVGID_16_">
		<g class="st32">
			<defs>
				<filter id="Adobe_OpacityMaskFilter_11_" filterUnits="userSpaceOnUse" x="229.9" y="425.67" width="36.34" height="53.14">
					<feFlood  style="flood-color:white;flood-opacity:1" result="back"/>
					<feBlend  in="SourceGraphic" in2="back" mode="normal"/>
				</filter>
			</defs>
			<mask maskUnits="userSpaceOnUse" x="229.9" y="425.67" width="36.34" height="53.14" id="SVGID_16_">
				<g class="st33">
				</g>
			</mask>
			<linearGradient id="SVGID_17_" gradientUnits="userSpaceOnUse" x1="183.9642" y1="452.2366" x2="284.4362" y2="452.2366">
				<stop  offset="0" style="stop-color:#FFFFFF"/>
				<stop  offset="1" style="stop-color:#000000"/>
			</linearGradient>
			<polygon class="st34" points="229.9,478.81 266.24,437.66 264.77,425.67 231.85,462.94 			"/>
		</g>
	</mask>
	<linearGradient id="SVGID_18_" gradientUnits="userSpaceOnUse" x1="183.9642" y1="452.2366" x2="284.4362" y2="452.2366">
		<stop  offset="0" style="stop-color:#000000"/>
		<stop  offset="1" style="stop-color:#BE1622"/>
	</linearGradient>
	<polygon class="st35" points="229.9,478.81 266.24,437.66 264.77,425.67 231.85,462.94 	"/>
	<path class="st11" d="M257.57,396.24l6.8-7.7l2.37-9.86c1.5-2.53,2.14-5.37,1.37-8.04l-21,23.77
		C250.46,394.03,254.28,394.3,257.57,396.24z"/>
	<defs>
		<filter id="Adobe_OpacityMaskFilter_12_" filterUnits="userSpaceOnUse" x="247.12" y="370.64" width="21.32" height="25.6">
			<feFlood  style="flood-color:white;flood-opacity:1" result="back"/>
			<feBlend  in="SourceGraphic" in2="back" mode="normal"/>
		</filter>
	</defs>
	<mask maskUnits="userSpaceOnUse" x="247.12" y="370.64" width="21.32" height="25.6" id="SVGID_19_">
		<g class="st36">
			<defs>
				<filter id="Adobe_OpacityMaskFilter_13_" filterUnits="userSpaceOnUse" x="247.12" y="370.64" width="21.32" height="25.6">
					<feFlood  style="flood-color:white;flood-opacity:1" result="back"/>
					<feBlend  in="SourceGraphic" in2="back" mode="normal"/>
				</filter>
			</defs>
			<mask maskUnits="userSpaceOnUse" x="247.12" y="370.64" width="21.32" height="25.6" id="SVGID_19_">
				<g class="st37">
				</g>
			</mask>
			<linearGradient id="SVGID_20_" gradientUnits="userSpaceOnUse" x1="183.9643" y1="383.4398" x2="284.438" y2="383.4398">
				<stop  offset="0" style="stop-color:#FFFFFF"/>
				<stop  offset="1" style="stop-color:#000000"/>
			</linearGradient>
			<path class="st38" d="M257.57,396.24l6.8-7.7l2.37-9.86c1.5-2.53,2.14-5.37,1.37-8.04l-21,23.77
				C250.46,394.03,254.28,394.3,257.57,396.24z"/>
		</g>
	</mask>
	<linearGradient id="SVGID_21_" gradientUnits="userSpaceOnUse" x1="183.9643" y1="383.4398" x2="284.438" y2="383.4398">
		<stop  offset="0" style="stop-color:#000000"/>
		<stop  offset="1" style="stop-color:#BE1622"/>
	</linearGradient>
	<path class="st39" d="M257.57,396.24l6.8-7.7l2.37-9.86c1.5-2.53,2.14-5.37,1.37-8.04l-21,23.77
		C250.46,394.03,254.28,394.3,257.57,396.24z"/>
	<path class="st11" d="M243.66,398.33l-4.53,5.13l-1.94,15.86l18.86-21.35C252.82,397.23,248.46,396.89,243.66,398.33z"/>
	<defs>
		<filter id="Adobe_OpacityMaskFilter_14_" filterUnits="userSpaceOnUse" x="237.19" y="397.34" width="18.86" height="21.98">
			<feFlood  style="flood-color:white;flood-opacity:1" result="back"/>
			<feBlend  in="SourceGraphic" in2="back" mode="normal"/>
		</filter>
	</defs>
	<mask maskUnits="userSpaceOnUse" x="237.19" y="397.34" width="18.86" height="21.98" id="SVGID_22_">
		<g class="st40">
			<defs>
				<filter id="Adobe_OpacityMaskFilter_15_" filterUnits="userSpaceOnUse" x="237.19" y="397.34" width="18.86" height="21.98">
					<feFlood  style="flood-color:white;flood-opacity:1" result="back"/>
					<feBlend  in="SourceGraphic" in2="back" mode="normal"/>
				</filter>
			</defs>
			<mask maskUnits="userSpaceOnUse" x="237.19" y="397.34" width="18.86" height="21.98" id="SVGID_22_">
				<g class="st41">
				</g>
			</mask>
			<linearGradient id="SVGID_23_" gradientUnits="userSpaceOnUse" x1="183.9648" y1="408.3251" x2="284.4344" y2="408.3251">
				<stop  offset="0" style="stop-color:#FFFFFF"/>
				<stop  offset="1" style="stop-color:#000000"/>
			</linearGradient>
			<path class="st42" d="M243.66,398.33l-4.53,5.13l-1.94,15.86l18.86-21.35C252.82,397.23,248.46,396.89,243.66,398.33z"/>
		</g>
	</mask>
	<linearGradient id="SVGID_24_" gradientUnits="userSpaceOnUse" x1="183.9648" y1="408.3251" x2="284.4344" y2="408.3251">
		<stop  offset="0" style="stop-color:#000000"/>
		<stop  offset="1" style="stop-color:#BE1622"/>
	</linearGradient>
	<path class="st43" d="M243.66,398.33l-4.53,5.13l-1.94,15.86l18.86-21.35C252.82,397.23,248.46,396.89,243.66,398.33z"/>
	<path class="st11" d="M262.99,364.49c-0.85-0.46-1.74-0.81-2.68-1.07c-2.44-0.67-5.13-0.74-7.85-0.68l-17.18,19.45l2.58,10.74
		L262.99,364.49z"/>
	<defs>
		<filter id="Adobe_OpacityMaskFilter_16_" filterUnits="userSpaceOnUse" x="235.29" y="362.72" width="27.7" height="30.2">
			<feFlood  style="flood-color:white;flood-opacity:1" result="back"/>
			<feBlend  in="SourceGraphic" in2="back" mode="normal"/>
		</filter>
	</defs>
	<mask maskUnits="userSpaceOnUse" x="235.29" y="362.72" width="27.7" height="30.2" id="SVGID_25_">
		<g class="st44">
			<defs>
				<filter id="Adobe_OpacityMaskFilter_17_" filterUnits="userSpaceOnUse" x="235.29" y="362.72" width="27.7" height="30.2">
					<feFlood  style="flood-color:white;flood-opacity:1" result="back"/>
					<feBlend  in="SourceGraphic" in2="back" mode="normal"/>
				</filter>
			</defs>
			<mask maskUnits="userSpaceOnUse" x="235.29" y="362.72" width="27.7" height="30.2" id="SVGID_25_">
				<g class="st45">
				</g>
			</mask>
			<linearGradient id="SVGID_26_" gradientUnits="userSpaceOnUse" x1="183.9646" y1="377.8267" x2="284.4372" y2="377.8267">
				<stop  offset="0" style="stop-color:#FFFFFF"/>
				<stop  offset="1" style="stop-color:#000000"/>
			</linearGradient>
			<path class="st46" d="M262.99,364.49c-0.85-0.46-1.74-0.81-2.68-1.07c-2.44-0.67-5.13-0.74-7.85-0.68l-17.18,19.45l2.58,10.74
				L262.99,364.49z"/>
		</g>
	</mask>
	<linearGradient id="SVGID_27_" gradientUnits="userSpaceOnUse" x1="183.9646" y1="377.8267" x2="284.4372" y2="377.8267">
		<stop  offset="0" style="stop-color:#000000"/>
		<stop  offset="1" style="stop-color:#BE1622"/>
	</linearGradient>
	<path class="st47" d="M262.99,364.49c-0.85-0.46-1.74-0.81-2.68-1.07c-2.44-0.67-5.13-0.74-7.85-0.68l-17.18,19.45l2.58,10.74
		L262.99,364.49z"/>
	<path class="st4" d="M246.16,362.92c-1.74,0-3.29,0.06-4.71,0.33l-8.68,9.83c-0.02,1.81,0.53,3.68,1.67,5.6l0.85,3.51l17.18-19.45
		C250.34,362.79,248.2,362.93,246.16,362.92z"/>
	<defs>
		<filter id="Adobe_OpacityMaskFilter_18_" filterUnits="userSpaceOnUse" x="232.77" y="362.74" width="19.69" height="19.45">
			<feFlood  style="flood-color:white;flood-opacity:1" result="back"/>
			<feBlend  in="SourceGraphic" in2="back" mode="normal"/>
		</filter>
	</defs>
	<mask maskUnits="userSpaceOnUse" x="232.77" y="362.74" width="19.69" height="19.45" id="SVGID_28_">
		<g class="st48">
			<defs>
				<filter id="Adobe_OpacityMaskFilter_19_" filterUnits="userSpaceOnUse" x="232.77" y="362.74" width="19.69" height="19.45">
					<feFlood  style="flood-color:white;flood-opacity:1" result="back"/>
					<feBlend  in="SourceGraphic" in2="back" mode="normal"/>
				</filter>
			</defs>
			<mask maskUnits="userSpaceOnUse" x="232.77" y="362.74" width="19.69" height="19.45" id="SVGID_28_">
				<g class="st49">
				</g>
			</mask>
			<linearGradient id="SVGID_29_" gradientUnits="userSpaceOnUse" x1="183.9651" y1="372.4664" x2="284.4344" y2="372.4664">
				<stop  offset="0" style="stop-color:#FFFFFF"/>
				<stop  offset="1" style="stop-color:#000000"/>
			</linearGradient>
			<path class="st50" d="M246.16,362.92c-1.74,0-3.29,0.06-4.71,0.33l-8.68,9.83c-0.02,1.81,0.53,3.68,1.67,5.6l0.85,3.51
				l17.18-19.45C250.34,362.79,248.2,362.93,246.16,362.92z"/>
		</g>
	</mask>
	<linearGradient id="SVGID_30_" gradientUnits="userSpaceOnUse" x1="183.9651" y1="372.4664" x2="284.4344" y2="372.4664">
		<stop  offset="0" style="stop-color:#000000"/>
		<stop  offset="1" style="stop-color:#BE1622"/>
	</linearGradient>
	<path class="st51" d="M246.16,362.92c-1.74,0-3.29,0.06-4.71,0.33l-8.68,9.83c-0.02,1.81,0.53,3.68,1.67,5.6l0.85,3.51l17.18-19.45
		C250.34,362.79,248.2,362.93,246.16,362.92z"/>
	<path class="st4" d="M239.56,399.96l-0.79-3.3c0,0,3.71-1.72,8.35-2.25l21-23.77c-0.2-0.69-0.47-1.37-0.87-2.04
		c-1.17-1.92-2.62-3.23-4.26-4.11l-25.12,28.44L239.56,399.96z"/>
	<defs>
		<filter id="Adobe_OpacityMaskFilter_20_" filterUnits="userSpaceOnUse" x="237.87" y="364.49" width="30.25" height="35.47">
			<feFlood  style="flood-color:white;flood-opacity:1" result="back"/>
			<feBlend  in="SourceGraphic" in2="back" mode="normal"/>
		</filter>
	</defs>
	<mask maskUnits="userSpaceOnUse" x="237.87" y="364.49" width="30.25" height="35.47" id="SVGID_31_">
		<g class="st52">
			<defs>
				<filter id="Adobe_OpacityMaskFilter_21_" filterUnits="userSpaceOnUse" x="237.87" y="364.49" width="30.25" height="35.47">
					<feFlood  style="flood-color:white;flood-opacity:1" result="back"/>
					<feBlend  in="SourceGraphic" in2="back" mode="normal"/>
				</filter>
			</defs>
			<mask maskUnits="userSpaceOnUse" x="237.87" y="364.49" width="30.25" height="35.47" id="SVGID_31_">
				<g class="st53">
				</g>
			</mask>
			<linearGradient id="SVGID_32_" gradientUnits="userSpaceOnUse" x1="183.9601" y1="382.2245" x2="284.438" y2="382.2245">
				<stop  offset="0" style="stop-color:#FFFFFF"/>
				<stop  offset="1" style="stop-color:#000000"/>
			</linearGradient>
			<path class="st54" d="M239.56,399.96l-0.79-3.3c0,0,3.71-1.72,8.35-2.25l21-23.77c-0.2-0.69-0.47-1.37-0.87-2.04
				c-1.17-1.92-2.62-3.23-4.26-4.11l-25.12,28.44L239.56,399.96z"/>
		</g>
	</mask>
	<linearGradient id="SVGID_33_" gradientUnits="userSpaceOnUse" x1="183.9601" y1="382.2245" x2="284.438" y2="382.2245">
		<stop  offset="0" style="stop-color:#000000"/>
		<stop  offset="1" style="stop-color:#BE1622"/>
	</linearGradient>
	<path class="st55" d="M239.56,399.96l-0.79-3.3c0,0,3.71-1.72,8.35-2.25l21-23.77c-0.2-0.69-0.47-1.37-0.87-2.04
		c-1.17-1.92-2.62-3.23-4.26-4.11l-25.12,28.44L239.56,399.96z"/>
	<path class="st4" d="M239.56,399.96l-0.43,3.5l4.53-5.13C242.32,398.73,240.95,399.25,239.56,399.96z"/>
	<defs>
		<filter id="Adobe_OpacityMaskFilter_22_" filterUnits="userSpaceOnUse" x="239.13" y="398.33" width="4.53" height="5.13">
			<feFlood  style="flood-color:white;flood-opacity:1" result="back"/>
			<feBlend  in="SourceGraphic" in2="back" mode="normal"/>
		</filter>
	</defs>
	<mask maskUnits="userSpaceOnUse" x="239.13" y="398.33" width="4.53" height="5.13" id="SVGID_34_">
		<g class="st56">
			<defs>
				<filter id="Adobe_OpacityMaskFilter_23_" filterUnits="userSpaceOnUse" x="239.13" y="398.33" width="4.53" height="5.13">
					<feFlood  style="flood-color:white;flood-opacity:1" result="back"/>
					<feBlend  in="SourceGraphic" in2="back" mode="normal"/>
				</filter>
			</defs>
			<mask maskUnits="userSpaceOnUse" x="239.13" y="398.33" width="4.53" height="5.13" id="SVGID_34_">
				<g class="st57">
				</g>
			</mask>
			<linearGradient id="SVGID_35_" gradientUnits="userSpaceOnUse" x1="183.9483" y1="400.89" x2="284.4482" y2="400.89">
				<stop  offset="0" style="stop-color:#FFFFFF"/>
				<stop  offset="1" style="stop-color:#000000"/>
			</linearGradient>
			<path class="st58" d="M239.56,399.96l-0.43,3.5l4.53-5.13C242.32,398.73,240.95,399.25,239.56,399.96z"/>
		</g>
	</mask>
	<linearGradient id="SVGID_36_" gradientUnits="userSpaceOnUse" x1="183.9483" y1="400.89" x2="284.4482" y2="400.89">
		<stop  offset="0" style="stop-color:#000000"/>
		<stop  offset="1" style="stop-color:#BE1622"/>
	</linearGradient>
	<path class="st59" d="M239.56,399.96l-0.43,3.5l4.53-5.13C242.32,398.73,240.95,399.25,239.56,399.96z"/>
	<path class="st4" d="M237.19,419.31l-1.7,13.88l26.53-30.03l-0.39-3.21c0,0-2.15-1.21-5.58-1.99L237.19,419.31z"/>
	<defs>
		<filter id="Adobe_OpacityMaskFilter_24_" filterUnits="userSpaceOnUse" x="235.49" y="397.97" width="26.53" height="35.23">
			<feFlood  style="flood-color:white;flood-opacity:1" result="back"/>
			<feBlend  in="SourceGraphic" in2="back" mode="normal"/>
		</filter>
	</defs>
	<mask maskUnits="userSpaceOnUse" x="235.49" y="397.97" width="26.53" height="35.23" id="SVGID_37_">
		<g class="st60">
			<defs>
				<filter id="Adobe_OpacityMaskFilter_25_" filterUnits="userSpaceOnUse" x="235.49" y="397.97" width="26.53" height="35.23">
					<feFlood  style="flood-color:white;flood-opacity:1" result="back"/>
					<feBlend  in="SourceGraphic" in2="back" mode="normal"/>
				</filter>
			</defs>
			<mask maskUnits="userSpaceOnUse" x="235.49" y="397.97" width="26.53" height="35.23" id="SVGID_37_">
				<g class="st61">
				</g>
			</mask>
			<linearGradient id="SVGID_38_" gradientUnits="userSpaceOnUse" x1="183.96" y1="415.5838" x2="284.4363" y2="415.5838">
				<stop  offset="0" style="stop-color:#FFFFFF"/>
				<stop  offset="1" style="stop-color:#000000"/>
			</linearGradient>
			<path class="st62" d="M237.19,419.31l-1.7,13.88l26.53-30.03l-0.39-3.21c0,0-2.15-1.21-5.58-1.99L237.19,419.31z"/>
		</g>
	</mask>
	<linearGradient id="SVGID_39_" gradientUnits="userSpaceOnUse" x1="183.96" y1="415.5838" x2="284.4363" y2="415.5838">
		<stop  offset="0" style="stop-color:#000000"/>
		<stop  offset="1" style="stop-color:#BE1622"/>
	</linearGradient>
	<path class="st63" d="M237.19,419.31l-1.7,13.88l26.53-30.03l-0.39-3.21c0,0-2.15-1.21-5.58-1.99L237.19,419.31z"/>
	<path class="st4" d="M261.62,399.96c0,0-0.01-0.01-0.03-0.04C261.61,399.95,261.62,399.96,261.62,399.96l2.75-11.42l-6.8,7.7
		C259.06,397.11,260.45,398.3,261.62,399.96z"/>
	<defs>
		<filter id="Adobe_OpacityMaskFilter_26_" filterUnits="userSpaceOnUse" x="257.57" y="388.54" width="6.8" height="11.42">
			<feFlood  style="flood-color:white;flood-opacity:1" result="back"/>
			<feBlend  in="SourceGraphic" in2="back" mode="normal"/>
		</filter>
	</defs>
	<mask maskUnits="userSpaceOnUse" x="257.57" y="388.54" width="6.8" height="11.42" id="SVGID_40_">
		<g class="st64">
			<defs>
				<filter id="Adobe_OpacityMaskFilter_27_" filterUnits="userSpaceOnUse" x="257.57" y="388.54" width="6.8" height="11.42">
					<feFlood  style="flood-color:white;flood-opacity:1" result="back"/>
					<feBlend  in="SourceGraphic" in2="back" mode="normal"/>
				</filter>
			</defs>
			<mask maskUnits="userSpaceOnUse" x="257.57" y="388.54" width="6.8" height="11.42" id="SVGID_40_">
				<g class="st65">
				</g>
			</mask>
			<linearGradient id="SVGID_41_" gradientUnits="userSpaceOnUse" x1="183.9711" y1="394.2501" x2="284.433" y2="394.2501">
				<stop  offset="0" style="stop-color:#FFFFFF"/>
				<stop  offset="1" style="stop-color:#000000"/>
			</linearGradient>
			<path class="st66" d="M261.62,399.96c0,0-0.01-0.01-0.03-0.04C261.61,399.95,261.62,399.96,261.62,399.96l2.75-11.42l-6.8,7.7
				C259.06,397.11,260.45,398.3,261.62,399.96z"/>
		</g>
	</mask>
	<linearGradient id="SVGID_42_" gradientUnits="userSpaceOnUse" x1="183.9711" y1="394.2501" x2="284.433" y2="394.2501">
		<stop  offset="0" style="stop-color:#000000"/>
		<stop  offset="1" style="stop-color:#BE1622"/>
	</linearGradient>
	<path class="st67" d="M261.62,399.96c0,0-0.01-0.01-0.03-0.04C261.61,399.95,261.62,399.96,261.62,399.96l2.75-11.42l-6.8,7.7
		C259.06,397.11,260.45,398.3,261.62,399.96z"/>
	<polygon class="st4" points="231.85,462.94 264.77,425.67 263.49,415.17 233.55,449.06 	"/>
	<defs>
		<filter id="Adobe_OpacityMaskFilter_28_" filterUnits="userSpaceOnUse" x="231.85" y="415.17" width="32.93" height="47.78">
			<feFlood  style="flood-color:white;flood-opacity:1" result="back"/>
			<feBlend  in="SourceGraphic" in2="back" mode="normal"/>
		</filter>
	</defs>
	<mask maskUnits="userSpaceOnUse" x="231.85" y="415.17" width="32.93" height="47.78" id="SVGID_43_">
		<g class="st68">
			<defs>
				<filter id="Adobe_OpacityMaskFilter_29_" filterUnits="userSpaceOnUse" x="231.85" y="415.17" width="32.93" height="47.78">
					<feFlood  style="flood-color:white;flood-opacity:1" result="back"/>
					<feBlend  in="SourceGraphic" in2="back" mode="normal"/>
				</filter>
			</defs>
			<mask maskUnits="userSpaceOnUse" x="231.85" y="415.17" width="32.93" height="47.78" id="SVGID_43_">
				<g class="st69">
				</g>
			</mask>
			<linearGradient id="SVGID_44_" gradientUnits="userSpaceOnUse" x1="183.9641" y1="439.054" x2="284.4362" y2="439.054">
				<stop  offset="0" style="stop-color:#FFFFFF"/>
				<stop  offset="1" style="stop-color:#000000"/>
			</linearGradient>
			<polygon class="st70" points="231.85,462.94 264.77,425.67 263.49,415.17 233.55,449.06 			"/>
		</g>
	</mask>
	<linearGradient id="SVGID_45_" gradientUnits="userSpaceOnUse" x1="183.9641" y1="439.054" x2="284.4362" y2="439.054">
		<stop  offset="0" style="stop-color:#000000"/>
		<stop  offset="1" style="stop-color:#BE1622"/>
	</linearGradient>
	<polygon class="st71" points="231.85,462.94 264.77,425.67 263.49,415.17 233.55,449.06 	"/>
	<polygon class="st4" points="228.2,492.69 267.53,448.17 266.24,437.66 229.9,478.81 	"/>
	<defs>
		<filter id="Adobe_OpacityMaskFilter_30_" filterUnits="userSpaceOnUse" x="228.2" y="437.66" width="39.33" height="55.02">
			<feFlood  style="flood-color:white;flood-opacity:1" result="back"/>
			<feBlend  in="SourceGraphic" in2="back" mode="normal"/>
		</filter>
	</defs>
	<mask maskUnits="userSpaceOnUse" x="228.2" y="437.66" width="39.33" height="55.02" id="SVGID_46_">
		<g class="st72">
			<defs>
				<filter id="Adobe_OpacityMaskFilter_31_" filterUnits="userSpaceOnUse" x="228.2" y="437.66" width="39.33" height="55.02">
					<feFlood  style="flood-color:white;flood-opacity:1" result="back"/>
					<feBlend  in="SourceGraphic" in2="back" mode="normal"/>
				</filter>
			</defs>
			<mask maskUnits="userSpaceOnUse" x="228.2" y="437.66" width="39.33" height="55.02" id="SVGID_46_">
				<g class="st73">
				</g>
			</mask>
			<linearGradient id="SVGID_47_" gradientUnits="userSpaceOnUse" x1="183.9637" y1="465.176" x2="284.4378" y2="465.176">
				<stop  offset="0" style="stop-color:#FFFFFF"/>
				<stop  offset="1" style="stop-color:#000000"/>
			</linearGradient>
			<polygon class="st74" points="228.2,492.69 267.53,448.17 266.24,437.66 229.9,478.81 			"/>
		</g>
	</mask>
	<linearGradient id="SVGID_48_" gradientUnits="userSpaceOnUse" x1="183.9637" y1="465.176" x2="284.4378" y2="465.176">
		<stop  offset="0" style="stop-color:#000000"/>
		<stop  offset="1" style="stop-color:#BE1622"/>
	</linearGradient>
	<polygon class="st75" points="228.2,492.69 267.53,448.17 266.24,437.66 229.9,478.81 	"/>
	<polygon class="st4" points="244.26,500.12 270.29,470.67 269,460.17 233.7,500.12 	"/>
	<defs>
		<filter id="Adobe_OpacityMaskFilter_32_" filterUnits="userSpaceOnUse" x="233.7" y="460.17" width="36.58" height="39.96">
			<feFlood  style="flood-color:white;flood-opacity:1" result="back"/>
			<feBlend  in="SourceGraphic" in2="back" mode="normal"/>
		</filter>
	</defs>
	<mask maskUnits="userSpaceOnUse" x="233.7" y="460.17" width="36.58" height="39.96" id="SVGID_49_">
		<g class="st76">
			<defs>
				<filter id="Adobe_OpacityMaskFilter_33_" filterUnits="userSpaceOnUse" x="233.7" y="460.17" width="36.58" height="39.96">
					<feFlood  style="flood-color:white;flood-opacity:1" result="back"/>
					<feBlend  in="SourceGraphic" in2="back" mode="normal"/>
				</filter>
			</defs>
			<mask maskUnits="userSpaceOnUse" x="233.7" y="460.17" width="36.58" height="39.96" id="SVGID_49_">
				<g class="st77">
				</g>
			</mask>
			<linearGradient id="SVGID_50_" gradientUnits="userSpaceOnUse" x1="183.9587" y1="480.1438" x2="284.4393" y2="480.1438">
				<stop  offset="0" style="stop-color:#FFFFFF"/>
				<stop  offset="1" style="stop-color:#000000"/>
			</linearGradient>
			<polygon class="st78" points="244.26,500.12 270.29,470.67 269,460.17 233.7,500.12 			"/>
		</g>
	</mask>
	<linearGradient id="SVGID_51_" gradientUnits="userSpaceOnUse" x1="183.9587" y1="480.1438" x2="284.4393" y2="480.1438">
		<stop  offset="0" style="stop-color:#000000"/>
		<stop  offset="1" style="stop-color:#BE1622"/>
	</linearGradient>
	<polygon class="st79" points="244.26,500.12 270.29,470.67 269,460.17 233.7,500.12 	"/>
	<polygon class="st4" points="266.89,500.12 273.04,493.17 271.76,482.67 256.33,500.12 	"/>
	<defs>
		<filter id="Adobe_OpacityMaskFilter_34_" filterUnits="userSpaceOnUse" x="256.33" y="482.67" width="16.7" height="17.46">
			<feFlood  style="flood-color:white;flood-opacity:1" result="back"/>
			<feBlend  in="SourceGraphic" in2="back" mode="normal"/>
		</filter>
	</defs>
	<mask maskUnits="userSpaceOnUse" x="256.33" y="482.67" width="16.7" height="17.46" id="SVGID_52_">
		<g class="st80">
			<defs>
				<filter id="Adobe_OpacityMaskFilter_35_" filterUnits="userSpaceOnUse" x="256.33" y="482.67" width="16.7" height="17.46">
					<feFlood  style="flood-color:white;flood-opacity:1" result="back"/>
					<feBlend  in="SourceGraphic" in2="back" mode="normal"/>
				</filter>
			</defs>
			<mask maskUnits="userSpaceOnUse" x="256.33" y="482.67" width="16.7" height="17.46" id="SVGID_52_">
				<g class="st81">
				</g>
			</mask>
			<linearGradient id="SVGID_53_" gradientUnits="userSpaceOnUse" x1="183.9657" y1="491.394" x2="284.4366" y2="491.394">
				<stop  offset="0" style="stop-color:#FFFFFF"/>
				<stop  offset="1" style="stop-color:#000000"/>
			</linearGradient>
			<polygon class="st82" points="266.89,500.12 273.04,493.17 271.76,482.67 256.33,500.12 			"/>
		</g>
	</mask>
	<linearGradient id="SVGID_54_" gradientUnits="userSpaceOnUse" x1="183.9657" y1="491.394" x2="284.4366" y2="491.394">
		<stop  offset="0" style="stop-color:#000000"/>
		<stop  offset="1" style="stop-color:#BE1622"/>
	</linearGradient>
	<polygon class="st83" points="266.89,500.12 273.04,493.17 271.76,482.67 256.33,500.12 	"/>
	<defs>
		<filter id="Adobe_OpacityMaskFilter_36_" filterUnits="userSpaceOnUse" x="239.56" y="399.17" width="0.77" height="0.79">
			<feFlood  style="flood-color:white;flood-opacity:1" result="back"/>
			<feBlend  in="SourceGraphic" in2="back" mode="normal"/>
		</filter>
	</defs>
	<mask maskUnits="userSpaceOnUse" x="239.56" y="399.17" width="0.77" height="0.79" id="SVGID_55_">
		<g class="st84">
			<defs>
				<filter id="Adobe_OpacityMaskFilter_37_" filterUnits="userSpaceOnUse" x="239.56" y="399.17" width="0.77" height="0.79">
					<feFlood  style="flood-color:white;flood-opacity:1" result="back"/>
					<feBlend  in="SourceGraphic" in2="back" mode="normal"/>
				</filter>
			</defs>
			<mask maskUnits="userSpaceOnUse" x="239.56" y="399.17" width="0.77" height="0.79" id="SVGID_55_">
				<g class="st85">
				</g>
			</mask>
			<linearGradient id="SVGID_56_" gradientUnits="userSpaceOnUse" x1="184.0033" y1="399.5651" x2="284.4056" y2="399.5651">
				<stop  offset="0" style="stop-color:#FFFFFF"/>
				<stop  offset="1" style="stop-color:#000000"/>
			</linearGradient>
			<path class="st86" d="M239.56,399.96c0.26-0.28,0.51-0.53,0.77-0.79C239.77,399.63,239.56,399.96,239.56,399.96z"/>
		</g>
	</mask>
	<linearGradient id="SVGID_57_" gradientUnits="userSpaceOnUse" x1="184.0033" y1="399.5651" x2="284.4056" y2="399.5651">
		<stop  offset="0" style="stop-color:#000000"/>
		<stop  offset="1" style="stop-color:#BE1622"/>
	</linearGradient>
	<path class="st87" d="M239.56,399.96c0.26-0.28,0.51-0.53,0.77-0.79C239.77,399.63,239.56,399.96,239.56,399.96z"/>
	<path class="st11" d="M239.56,399.96c0.26-0.28,0.51-0.53,0.77-0.79C239.77,399.63,239.56,399.96,239.56,399.96z"/>
	<path class="st11" d="M256.04,397.97l1.53-1.73c-3.3-1.94-7.11-2.21-10.45-1.83l-3.46,3.92
		C248.46,396.89,252.82,397.23,256.04,397.97z"/>
	<defs>
		<filter id="Adobe_OpacityMaskFilter_38_" filterUnits="userSpaceOnUse" x="243.66" y="394.26" width="13.91" height="4.07">
			<feFlood  style="flood-color:white;flood-opacity:1" result="back"/>
			<feBlend  in="SourceGraphic" in2="back" mode="normal"/>
		</filter>
	</defs>
	<mask maskUnits="userSpaceOnUse" x="243.66" y="394.26" width="13.91" height="4.07" id="SVGID_58_">
		<g class="st88">
			<defs>
				<filter id="Adobe_OpacityMaskFilter_39_" filterUnits="userSpaceOnUse" x="243.66" y="394.26" width="13.91" height="4.07">
					<feFlood  style="flood-color:white;flood-opacity:1" result="back"/>
					<feBlend  in="SourceGraphic" in2="back" mode="normal"/>
				</filter>
			</defs>
			<mask maskUnits="userSpaceOnUse" x="243.66" y="394.26" width="13.91" height="4.07" id="SVGID_58_">
				<g class="st89">
				</g>
			</mask>
			<linearGradient id="SVGID_59_" gradientUnits="userSpaceOnUse" x1="183.9691" y1="396.2935" x2="284.4339" y2="396.2935">
				<stop  offset="0" style="stop-color:#FFFFFF"/>
				<stop  offset="1" style="stop-color:#000000"/>
			</linearGradient>
			<path class="st90" d="M256.04,397.97l1.53-1.73c-3.3-1.94-7.11-2.21-10.45-1.83l-3.46,3.92
				C248.46,396.89,252.82,397.23,256.04,397.97z"/>
		</g>
	</mask>
	<linearGradient id="SVGID_60_" gradientUnits="userSpaceOnUse" x1="183.9691" y1="396.2935" x2="284.4339" y2="396.2935">
		<stop  offset="0" style="stop-color:#000000"/>
		<stop  offset="1" style="stop-color:#BE1622"/>
	</linearGradient>
	<path class="st91" d="M256.04,397.97l1.53-1.73c-3.3-1.94-7.11-2.21-10.45-1.83l-3.46,3.92
		C248.46,396.89,252.82,397.23,256.04,397.97z"/>
	<path class="st11" d="M256.04,397.97l1.53-1.73c-3.3-1.94-7.11-2.21-10.45-1.83l-3.46,3.92
		C248.46,396.89,252.82,397.23,256.04,397.97z"/>
	<path class="st4" d="M247.12,394.41c-4.65,0.53-8.35,2.25-8.35,2.25l0.79,3.3c0,0,0.21-0.33,0.77-0.79
		c-0.26,0.26-0.51,0.51-0.77,0.79c1.39-0.71,2.76-1.23,4.1-1.63L247.12,394.41z"/>
	<defs>
		<filter id="Adobe_OpacityMaskFilter_40_" filterUnits="userSpaceOnUse" x="238.77" y="394.41" width="8.35" height="5.55">
			<feFlood  style="flood-color:white;flood-opacity:1" result="back"/>
			<feBlend  in="SourceGraphic" in2="back" mode="normal"/>
		</filter>
	</defs>
	<mask maskUnits="userSpaceOnUse" x="238.77" y="394.41" width="8.35" height="5.55" id="SVGID_61_">
		<g class="st92">
			<defs>
				<filter id="Adobe_OpacityMaskFilter_41_" filterUnits="userSpaceOnUse" x="238.77" y="394.41" width="8.35" height="5.55">
					<feFlood  style="flood-color:white;flood-opacity:1" result="back"/>
					<feBlend  in="SourceGraphic" in2="back" mode="normal"/>
				</filter>
			</defs>
			<mask maskUnits="userSpaceOnUse" x="238.77" y="394.41" width="8.35" height="5.55" id="SVGID_61_">
				<g class="st93">
				</g>
			</mask>
			<linearGradient id="SVGID_62_" gradientUnits="userSpaceOnUse" x1="183.9573" y1="397.1836" x2="284.4417" y2="397.1836">
				<stop  offset="0" style="stop-color:#FFFFFF"/>
				<stop  offset="1" style="stop-color:#000000"/>
			</linearGradient>
			<path class="st94" d="M247.12,394.41c-4.65,0.53-8.35,2.25-8.35,2.25l0.79,3.3c0,0,0.21-0.33,0.77-0.79
				c-0.26,0.26-0.51,0.51-0.77,0.79c1.39-0.71,2.76-1.23,4.1-1.63L247.12,394.41z"/>
		</g>
	</mask>
	<linearGradient id="SVGID_63_" gradientUnits="userSpaceOnUse" x1="183.9573" y1="397.1836" x2="284.4417" y2="397.1836">
		<stop  offset="0" style="stop-color:#000000"/>
		<stop  offset="1" style="stop-color:#BE1622"/>
	</linearGradient>
	<path class="st95" d="M247.12,394.41c-4.65,0.53-8.35,2.25-8.35,2.25l0.79,3.3c0,0,0.21-0.33,0.77-0.79
		c-0.26,0.26-0.51,0.51-0.77,0.79c1.39-0.71,2.76-1.23,4.1-1.63L247.12,394.41z"/>
	<path class="st11" d="M247.12,394.41c-4.65,0.53-8.35,2.25-8.35,2.25l0.79,3.3c0,0,0.21-0.33,0.77-0.79
		c-0.26,0.26-0.51,0.51-0.77,0.79c1.39-0.71,2.76-1.23,4.1-1.63L247.12,394.41z"/>
	<path class="st4" d="M257.57,396.24l-1.53,1.73c3.43,0.78,5.58,1.99,5.58,1.99C260.45,398.3,259.06,397.11,257.57,396.24z"/>
	<defs>
		<filter id="Adobe_OpacityMaskFilter_42_" filterUnits="userSpaceOnUse" x="256.04" y="396.24" width="5.58" height="3.72">
			<feFlood  style="flood-color:white;flood-opacity:1" result="back"/>
			<feBlend  in="SourceGraphic" in2="back" mode="normal"/>
		</filter>
	</defs>
	<mask maskUnits="userSpaceOnUse" x="256.04" y="396.24" width="5.58" height="3.72" id="SVGID_64_">
		<g class="st96">
			<defs>
				<filter id="Adobe_OpacityMaskFilter_43_" filterUnits="userSpaceOnUse" x="256.04" y="396.24" width="5.58" height="3.72">
					<feFlood  style="flood-color:white;flood-opacity:1" result="back"/>
					<feBlend  in="SourceGraphic" in2="back" mode="normal"/>
				</filter>
			</defs>
			<mask maskUnits="userSpaceOnUse" x="256.04" y="396.24" width="5.58" height="3.72" id="SVGID_64_">
				<g class="st97">
				</g>
			</mask>
			<linearGradient id="SVGID_65_" gradientUnits="userSpaceOnUse" x1="183.9491" y1="398.0995" x2="284.4402" y2="398.0995">
				<stop  offset="0" style="stop-color:#FFFFFF"/>
				<stop  offset="1" style="stop-color:#000000"/>
			</linearGradient>
			<path class="st98" d="M257.57,396.24l-1.53,1.73c3.43,0.78,5.58,1.99,5.58,1.99C260.45,398.3,259.06,397.11,257.57,396.24z"/>
		</g>
	</mask>
	<linearGradient id="SVGID_66_" gradientUnits="userSpaceOnUse" x1="183.9491" y1="398.0995" x2="284.4402" y2="398.0995">
		<stop  offset="0" style="stop-color:#000000"/>
		<stop  offset="1" style="stop-color:#BE1622"/>
	</linearGradient>
	<path class="st99" d="M257.57,396.24l-1.53,1.73c3.43,0.78,5.58,1.99,5.58,1.99C260.45,398.3,259.06,397.11,257.57,396.24z"/>
	<path class="st11" d="M257.57,396.24l-1.53,1.73c3.43,0.78,5.58,1.99,5.58,1.99C260.45,398.3,259.06,397.11,257.57,396.24z"/>
</g>
<polygon class="st100" points="205.43,352.3 250.58,362.72 229.64,403.25 167.22,377.78 "/>
<polygon class="st100" points="293.14,352.3 249.43,362.72 270.37,403.25 331.05,376.73 "/>
<path class="st1" d="M289.97,133.33c0,0-33.87,27.2-109.14,27.13l6.41-18.48l98.65-18.82L289.97,133.33z"/>
<path class="st101" d="M306.72,150.4c0,0,25.28,28.78,18.19,77.66l9.97-5.45c0,0,12.14-34.78,6.91-62.15L306.72,150.4z"/>
<path class="st101" d="M306.72,150.4c0,0-13.49-18.47-39.06-29.28l33.05-14.92c0,0,25.76,4.05,41.08,54.25L306.72,150.4z"/>
<path class="st102" d="M159.67,152.46c-2.39,27.76,7.4,70.65,7.4,70.65l6.87,2.95c-7.08-48.88,20.78-83.65,20.78-83.65
	s7.49-8.84,27.84-14.3l-30.89-27.62C191.68,100.49,162.55,119.02,159.67,152.46z"/>
<path class="st101" d="M190.93,93.31c77.72-43.79,109.78,12.89,109.78,12.89c-5.19,53.07-124.39,38.46-124.39,38.46
	s-3.89,1.16-25.31-7.53C151.01,137.14,163.5,111.61,190.93,93.31z"/>
</svg>
