<?xml version="1.0" encoding="utf-8"?>
<!-- Generator: Adobe Illustrator 23.0.2, SVG Export Plug-In . SVG Version: 6.00 Build 0)  -->
<svg version="1.1" id="Calque_1" xmlns="http://www.w3.org/2000/svg" xmlns:xlink="http://www.w3.org/1999/xlink" x="0px" y="0px"
	 viewBox="0 0 500 500" style="enable-background:new 0 0 500 500;" xml:space="preserve">
<style type="text/css">
	.st0{fill:#702E40;}
	.st1{fill:#FFFFFF;}
	.st2{fill:#F4EBE6;}
	.st3{fill:#F23130;}
	.st4{fill:#FFA91B;}
	.st5{fill:#00A59B;}
	.st6{fill:#183A4A;}
	.st7{fill:#FF5443;}
	.st8{fill:#FFC52D;}
	.st9{fill:#50212D;}
	.st10{fill:#00B4BA;}
</style>
<g>
	<g>
		<g>
			<path class="st0" d="M292.9,193.52c8.49-2.84,15.76-7.83,23.94-11.36c0.68-0.29,1.34-0.44,1.97-0.49l-0.73-1.91l-37.72-20.21
				l-1.33-0.72l13.35,34.92C292.56,193.69,292.71,193.59,292.9,193.52z"/>
		</g>
		<polygon class="st1" points="243.89,174.53 282.68,195.32 318.77,181.59 279.72,160.67 243.63,174.39 		"/>
		<path class="st2" d="M288.08,187.55c-4.43,1.68-9.03,2.79-13.68,3.33l8.27,4.43l36.1-13.72l-11.52-6.17
			C301.77,180.66,295.26,184.82,288.08,187.55z"/>
		<g>
			<path class="st3" d="M282.68,195.32l58.73,154.46c0,0,2.34,3.1,19.37-3.38c17.03-6.48,16.72-10.34,16.72-10.34l-58.72-154.45
				c0,0-4.94-1.4-19.14,3.99C285.44,190.98,282.68,195.32,282.68,195.32z"/>
			
				<rect x="329.32" y="306.64" transform="matrix(0.9348 -0.3553 0.3553 0.9348 -88.9752 144.3802)" class="st0" width="38.61" height="15.62"/>
			
				<rect x="319.43" y="284.52" transform="matrix(0.9347 -0.3553 0.3553 0.9347 -80.3828 139.192)" class="st4" width="38.62" height="7.81"/>
		</g>
		<g>
			<polygon class="st5" points="243.62,174.39 243.89,174.53 243.63,174.39 			"/>
			<polygon class="st0" points="296.63,312.99 341.4,349.77 282.68,195.32 244.96,175.1 244.96,175.11 244.96,175.1 243.62,174.39 
							"/>
		</g>
	</g>
	<g>
		<g>
			<g>
				<g>
					<polygon class="st5" points="254.55,296.21 283.33,346.5 283.33,181.26 255.25,148.96 255.25,148.96 255.25,148.96 
						254.26,147.82 					"/>
				</g>
				<polygon class="st1" points="215.85,150 244.72,183.21 283.33,183.21 254.26,149.77 215.65,149.77 				"/>
				<path class="st2" d="M252.53,177.88c-4.74,0-9.43-0.6-13.97-1.75l6.16,7.08h38.62l-8.58-9.86
					C267.77,176.3,260.21,177.88,252.53,177.88z"/>
				<g>
					<path class="st6" d="M244.72,183.21v165.24c0,0,1.09,3.73,19.31,3.73c18.22,0,19.31-3.73,19.31-3.73V183.21
						c0,0-4.12-3.07-19.31-3.07C248.84,180.15,244.72,183.21,244.72,183.21z"/>
					<rect x="244.72" y="310.2" class="st7" width="38.62" height="15.62"/>
					<rect x="244.72" y="286.26" class="st4" width="38.62" height="7.81"/>
				</g>
				<g>
					<polygon class="st5" points="215.64,149.77 215.85,150 215.65,149.77 					"/>
					<polygon class="st5" points="215.93,298.16 244.72,348.45 244.72,183.21 216.64,150.91 216.64,150.92 216.64,150.91 
						215.64,149.77 					"/>
				</g>
			</g>
			<g>
				<g>
					<polygon class="st8" points="206.18,296.21 234.96,346.5 234.96,181.26 206.88,148.96 206.88,148.96 206.88,148.96 
						205.89,147.82 					"/>
				</g>
				<polygon class="st1" points="167.47,149.99 196.34,183.21 234.96,183.21 205.89,149.77 167.28,149.77 				"/>
				<path class="st2" d="M204.15,177.88c-4.74,0-9.43-0.6-13.97-1.75l6.16,7.08h38.62l-8.58-9.86
					C219.4,176.3,211.83,177.88,204.15,177.88z"/>
				<g>
					<path class="st9" d="M196.34,183.21v165.24c0,0,1.09,3.73,19.31,3.73c18.23,0,19.31-3.73,19.31-3.73V183.21
						c0,0-4.12-3.07-19.31-3.07C200.46,180.14,196.34,183.21,196.34,183.21z"/>
					<rect x="196.34" y="240.13" class="st7" width="38.62" height="92.1"/>
					<rect x="196.34" y="216.19" class="st4" width="38.62" height="7.81"/>
					<rect x="196.34" y="200.28" class="st4" width="38.62" height="7.81"/>
				</g>
				<g>
					<polygon class="st5" points="167.27,149.77 167.47,149.99 167.28,149.77 					"/>
					<polygon class="st8" points="167.56,298.16 196.34,348.46 196.34,183.21 168.26,150.91 168.27,150.92 168.26,150.91 
						167.27,149.77 					"/>
				</g>
			</g>
			<g>
				<g>
					<polygon class="st0" points="161.41,296.21 190.19,346.5 190.19,181.26 162.11,148.96 162.11,148.96 162.11,148.96 
						161.12,147.82 					"/>
				</g>
				<polygon class="st1" points="122.7,149.99 151.58,183.21 190.19,183.21 161.12,149.77 122.51,149.77 				"/>
				<path class="st2" d="M159.39,177.88c-4.74,0-9.43-0.6-13.97-1.75l6.16,7.08h38.61l-8.57-9.86
					C174.63,176.3,167.07,177.88,159.39,177.88z"/>
				<g>
					<path class="st10" d="M151.58,183.21v165.24c0,0,1.08,3.73,19.31,3.73c18.22,0,19.31-3.73,19.31-3.73V183.21
						c0,0-4.12-3.07-19.31-3.07C155.7,180.14,151.58,183.21,151.58,183.21z"/>
					<rect x="151.58" y="304.69" class="st4" width="38.61" height="27.53"/>
					<rect x="151.58" y="201.6" class="st4" width="38.61" height="39.86"/>
				</g>
				<g>
					<polygon class="st5" points="122.5,149.77 122.7,149.99 122.51,149.77 					"/>
					<polygon class="st6" points="122.79,298.16 151.58,348.46 151.58,183.21 123.5,150.91 123.5,150.92 123.5,150.91 122.5,149.77 
											"/>
				</g>
			</g>
		</g>
		<path class="st5" d="M278.59,249.11c0,7.83-6.34,14.17-14.17,14.17s-14.17-6.35-14.17-14.17c0-7.83,6.35-14.17,14.17-14.17
			S278.59,241.29,278.59,249.11z"/>
	</g>
</g>
</svg>
