<?xml version="1.0" encoding="utf-8"?>
<!-- Generator: Adobe Illustrator 23.0.2, SVG Export Plug-In . SVG Version: 6.00 Build 0)  -->
<svg version="1.1" id="Calque_1" xmlns="http://www.w3.org/2000/svg" xmlns:xlink="http://www.w3.org/1999/xlink" x="0px" y="0px"
	 viewBox="0 0 500 500" style="enable-background:new 0 0 500 500;" xml:space="preserve">
<style type="text/css">
	.st0{fill:#B3B3B3;}
	.st1{fill:#F1583E;}
</style>
<rect x="157.16" y="201.31" class="st0" width="185.67" height="164.73"/>
<polygon class="st1" points="342.84,204.83 342.84,194.6 282.19,194.6 282.19,133.96 157.16,133.96 157.16,204.83 "/>
<polygon class="st1" points="286.31,133.96 286.31,190.48 342.84,190.48 "/>
<g>
	<path class="st1" d="M218.72,308.23h63.18v-56.82h-63.18V308.23z M222.38,255.07h55.86v49.5h-55.86V255.07z"/>
	<polygon class="st1" points="191.4,297.75 213.77,297.75 213.77,294.09 195.05,294.09 195.05,265.55 213.77,265.55 213.77,261.9 
		191.4,261.9 	"/>
	<polygon class="st1" points="287.09,261.9 287.09,265.55 305.81,265.55 305.81,294.09 287.09,294.09 287.09,297.75 309.47,297.75 
		309.47,261.9 	"/>
</g>
</svg>
